<svg xmlns="http://www.w3.org/2000/svg" xmlns:xlink="http://www.w3.org/1999/xlink" width="400" zoomAndPan="magnify" viewBox="0 0 300 284.999983" height="380" preserveAspectRatio="xMidYMid meet" version="1.0"><defs><clipPath id="c2950ca87e"><path d="M 0 0 L 300 0 L 300 284.664062 L 0 284.664062 Z M 0 0 " clip-rule="nonzero"/></clipPath><clipPath id="bf017861ad"><path d="M 37.5 0 L 262.5 0 C 272.445312 0 281.984375 3.949219 289.015625 10.984375 C 296.050781 18.015625 300 27.554688 300 37.5 L 300 247.164062 C 300 257.109375 296.050781 266.648438 289.015625 273.679688 C 281.984375 280.714844 272.445312 284.664062 262.5 284.664062 L 37.5 284.664062 C 27.554688 284.664062 18.015625 280.714844 10.984375 273.679688 C 3.949219 266.648438 0 257.109375 0 247.164062 L 0 37.5 C 0 27.554688 3.949219 18.015625 10.984375 10.984375 C 18.015625 3.949219 27.554688 0 37.5 0 Z M 37.5 0 " clip-rule="nonzero"/></clipPath><clipPath id="d1d4abc2d6"><path d="M 0.00390625 0 L 300 0 L 300 284.761719 L 0.00390625 284.761719 Z M 0.00390625 0 " clip-rule="nonzero"/></clipPath><clipPath id="129a032ab2"><path d="M 37.5 0 L 262.5 0 C 272.445312 0 281.980469 3.949219 289.015625 10.984375 C 296.046875 18.015625 299.996094 27.554688 299.996094 37.5 L 299.996094 247.160156 C 299.996094 257.105469 296.046875 266.644531 289.015625 273.675781 C 281.980469 280.710938 272.445312 284.660156 262.5 284.660156 L 37.5 284.660156 C 27.554688 284.660156 18.019531 280.710938 10.984375 273.675781 C 3.953125 266.644531 0.00390625 257.105469 0.00390625 247.160156 L 0.00390625 37.5 C 0.00390625 27.554688 3.953125 18.015625 10.984375 10.984375 C 18.019531 3.949219 27.554688 0 37.5 0 Z M 37.5 0 " clip-rule="nonzero"/></clipPath><clipPath id="2ed75ea048"><path d="M 211 135 L 264 135 L 264 152 L 211 152 Z M 211 135 " clip-rule="nonzero"/></clipPath><clipPath id="7693224cab"><path d="M 8.371094 73.730469 L 8.371094 183.105469 C 8.371094 203.816406 25.160156 220.605469 45.871094 220.605469 L 254.128906 220.605469 C 274.839844 220.605469 291.628906 203.816406 291.628906 183.105469 L 291.628906 73.730469 C 291.628906 53.023438 274.839844 36.230469 254.128906 36.230469 L 45.871094 36.230469 C 25.160156 36.230469 8.371094 53.023438 8.371094 73.730469 Z M 8.371094 73.730469 " clip-rule="nonzero"/></clipPath><clipPath id="c2bd6b4e5c"><path d="M 182 164 L 216 164 L 216 182 L 182 182 Z M 182 164 " clip-rule="nonzero"/></clipPath><clipPath id="b5f55bf884"><path d="M 8.371094 73.730469 L 8.371094 183.105469 C 8.371094 203.816406 25.160156 220.605469 45.871094 220.605469 L 254.128906 220.605469 C 274.839844 220.605469 291.628906 203.816406 291.628906 183.105469 L 291.628906 73.730469 C 291.628906 53.023438 274.839844 36.230469 254.128906 36.230469 L 45.871094 36.230469 C 25.160156 36.230469 8.371094 53.023438 8.371094 73.730469 Z M 8.371094 73.730469 " clip-rule="nonzero"/></clipPath><clipPath id="a23f875d47"><path d="M 8.371094 119 L 123 119 L 123 220.625 L 8.371094 220.625 Z M 8.371094 119 " clip-rule="nonzero"/></clipPath><clipPath id="545cdff782"><path d="M 8.371094 73.730469 L 8.371094 183.105469 C 8.371094 203.816406 25.160156 220.605469 45.871094 220.605469 L 254.128906 220.605469 C 274.839844 220.605469 291.628906 203.816406 291.628906 183.105469 L 291.628906 73.730469 C 291.628906 53.023438 274.839844 36.230469 254.128906 36.230469 L 45.871094 36.230469 C 25.160156 36.230469 8.371094 53.023438 8.371094 73.730469 Z M 8.371094 73.730469 " clip-rule="nonzero"/></clipPath><clipPath id="5cc6112c50"><path d="M 62 36.230469 L 291.871094 36.230469 L 291.871094 220.625 L 62 220.625 Z M 62 36.230469 " clip-rule="nonzero"/></clipPath><clipPath id="7adc4b7156"><path d="M 8.371094 73.730469 L 8.371094 183.105469 C 8.371094 203.816406 25.160156 220.605469 45.871094 220.605469 L 254.128906 220.605469 C 274.839844 220.605469 291.628906 203.816406 291.628906 183.105469 L 291.628906 73.730469 C 291.628906 53.023438 274.839844 36.230469 254.128906 36.230469 L 45.871094 36.230469 C 25.160156 36.230469 8.371094 53.023438 8.371094 73.730469 Z M 8.371094 73.730469 " clip-rule="nonzero"/></clipPath></defs><g clip-path="url(#c2950ca87e)"><g clip-path="url(#bf017861ad)"><path fill="#ffffff" d="M 0 0 L 300.230469 0 L 300.230469 284.664062 L 0 284.664062 Z M 0 0 " fill-opacity="1" fill-rule="nonzero"/></g></g><g clip-path="url(#d1d4abc2d6)"><g clip-path="url(#129a032ab2)"><path stroke-linecap="butt" transform="matrix(0.75, 0, 0, 0.75, 0.00232464, -0.00001)" fill="none" stroke-linejoin="miter" d="M 49.996906 0.0000133333 L 349.996936 0.0000133333 C 363.257354 0.0000133333 375.970897 5.265639 385.351106 14.645848 C 394.726107 24.020849 399.991733 36.7396 399.991733 50.000018 L 399.991733 329.546922 C 399.991733 342.80734 394.726107 355.526091 385.351106 364.901092 C 375.970897 374.281301 363.257354 379.546927 349.996936 379.546927 L 49.996906 379.546927 C 36.736488 379.546927 24.022945 374.281301 14.642735 364.901092 C 5.267734 355.526091 0.00210882 342.80734 0.00210882 329.546922 L 0.00210882 50.000018 C 0.00210882 36.7396 5.267734 24.020849 14.642735 14.645848 C 24.022945 5.265639 36.736488 0.0000133333 49.996906 0.0000133333 Z M 49.996906 0.0000133333 " stroke="#000000" stroke-width="4" stroke-opacity="1" stroke-miterlimit="4"/></g></g><g clip-path="url(#2ed75ea048)"><g clip-path="url(#7693224cab)"><path fill="#38b6ff" d="M 263.46875 143.480469 C 263.46875 148.074219 259.746094 151.792969 255.152344 151.792969 L 220.300781 151.792969 C 215.707031 151.792969 211.984375 148.074219 211.984375 143.480469 C 211.984375 138.894531 215.707031 135.175781 220.300781 135.175781 L 255.152344 135.175781 C 259.746094 135.175781 263.46875 138.894531 263.46875 143.480469 " fill-opacity="1" fill-rule="nonzero"/></g></g><g clip-path="url(#c2bd6b4e5c)"><g clip-path="url(#b5f55bf884)"><path fill="#38b6ff" d="M 190.835938 164.460938 L 206.769531 164.460938 C 211.359375 164.460938 215.082031 168.183594 215.082031 172.773438 C 215.082031 177.363281 211.359375 181.085938 206.769531 181.085938 L 190.835938 181.085938 C 186.246094 181.085938 182.523438 177.363281 182.523438 172.773438 C 182.523438 168.183594 186.246094 164.460938 190.835938 164.460938 " fill-opacity="1" fill-rule="nonzero"/></g></g><g clip-path="url(#a23f875d47)"><g clip-path="url(#545cdff782)"><path fill="#004aad" d="M 122.199219 220.710938 L 62.164062 220.710938 L 8.472656 119.347656 L 68.511719 119.347656 L 122.199219 220.710938 " fill-opacity="1" fill-rule="nonzero"/></g></g><g clip-path="url(#5cc6112c50)"><g clip-path="url(#7adc4b7156)"><path fill="#38b6ff" d="M 291.425781 114.039062 C 291.515625 118.703125 287.761719 122.507812 283.113281 122.507812 L 178.03125 122.507812 C 175.6875 122.507812 173.535156 123.800781 172.4375 125.875 C 170.199219 130.09375 173.257812 135.175781 178.03125 135.175781 L 196.300781 135.175781 C 200.878906 135.175781 204.800781 138.75 204.886719 143.328125 C 204.96875 147.996094 201.210938 151.792969 196.574219 151.792969 L 162.515625 151.792969 C 160.171875 151.792969 158.019531 153.089844 156.917969 155.167969 C 154.683594 159.382812 157.742188 164.464844 162.515625 164.464844 L 170.144531 164.464844 C 174.546875 164.464844 178.375 167.78125 178.679688 172.175781 C 178.859375 174.707031 177.902344 177.019531 176.269531 178.652344 C 174.765625 180.15625 172.683594 181.085938 170.394531 181.085938 L 147.003906 181.085938 C 144.660156 181.085938 142.507812 182.378906 141.410156 184.453125 L 122.203125 220.714844 L 62.160156 220.714844 L 92.1875 164.03125 L 100.386719 148.546875 L 116.320312 118.457031 L 159.933594 36.117188 L 219.972656 36.117188 L 187.945312 96.59375 C 185.710938 100.808594 188.769531 105.882812 193.539062 105.882812 L 282.839844 105.882812 C 287.417969 105.882812 291.339844 109.460938 291.425781 114.039062 " fill-opacity="1" fill-rule="nonzero"/></g></g></svg>