<svg xmlns="http://www.w3.org/2000/svg" xmlns:xlink="http://www.w3.org/1999/xlink" width="500" zoomAndPan="magnify" viewBox="0 0 375 374.999991" height="500" preserveAspectRatio="xMidYMid meet" version="1.0"><defs><clipPath id="2d6c3ef328"><path d="M 85.460938 207.226562 L 93.035156 207.226562 L 93.035156 214.796875 L 85.460938 214.796875 Z M 85.460938 207.226562 " clip-rule="nonzero"/></clipPath><clipPath id="95657889cf"><path d="M 0 156 L 151 156 L 151 290.0625 L 0 290.0625 Z M 0 156 " clip-rule="nonzero"/></clipPath><clipPath id="0c13a3ad90"><path d="M 71 46.3125 L 375 46.3125 L 375 290.0625 L 71 290.0625 Z M 71 46.3125 " clip-rule="nonzero"/></clipPath></defs><g clip-path="url(#2d6c3ef328)"><path fill="#004aad" d="M 85.460938 207.226562 L 93.035156 207.226562 L 93.035156 214.796875 L 85.460938 214.796875 Z M 85.460938 207.226562 " fill-opacity="1" fill-rule="nonzero"/></g><path fill="#38b6ff" d="M 337.628906 188.292969 C 337.628906 194.367188 332.707031 199.292969 326.628906 199.292969 L 280.515625 199.292969 C 274.4375 199.292969 269.515625 194.367188 269.515625 188.292969 C 269.515625 182.226562 274.4375 177.300781 280.515625 177.300781 L 326.628906 177.300781 C 332.707031 177.300781 337.628906 182.226562 337.628906 188.292969 " fill-opacity="1" fill-rule="nonzero"/><path fill="#38b6ff" d="M 241.53125 216.050781 L 262.613281 216.050781 C 268.6875 216.050781 273.609375 220.972656 273.609375 227.046875 C 273.609375 233.121094 268.6875 238.046875 262.613281 238.046875 L 241.53125 238.046875 C 235.460938 238.046875 230.535156 233.121094 230.535156 227.046875 C 230.535156 220.972656 235.460938 216.050781 241.53125 216.050781 " fill-opacity="1" fill-rule="nonzero"/><g clip-path="url(#95657889cf)"><path fill="#004aad" d="M 150.71875 290.476562 L 71.285156 290.476562 L 0.25 156.359375 L 79.683594 156.359375 L 150.71875 290.476562 " fill-opacity="1" fill-rule="nonzero"/></g><g clip-path="url(#0c13a3ad90)"><path fill="#38b6ff" d="M 374.625 149.339844 C 374.742188 155.507812 369.777344 160.539062 363.625 160.539062 L 224.59375 160.539062 C 221.488281 160.539062 218.640625 162.253906 217.1875 164.996094 C 214.230469 170.578125 218.273438 177.300781 224.59375 177.300781 L 248.761719 177.300781 C 254.816406 177.300781 260.007812 182.03125 260.121094 188.089844 C 260.230469 194.261719 255.261719 199.292969 249.121094 199.292969 L 204.0625 199.292969 C 200.960938 199.292969 198.109375 201.007812 196.65625 203.75 C 193.703125 209.332031 197.746094 216.054688 204.0625 216.054688 L 214.15625 216.054688 C 219.980469 216.054688 225.046875 220.445312 225.449219 226.257812 C 225.683594 229.605469 224.421875 232.667969 222.261719 234.828125 C 220.269531 236.816406 217.515625 238.046875 214.488281 238.046875 L 183.539062 238.046875 C 180.4375 238.046875 177.589844 239.757812 176.136719 242.5 L 150.722656 290.480469 L 71.28125 290.480469 L 111.007812 215.484375 L 121.859375 194.996094 L 142.941406 155.183594 L 200.648438 46.242188 L 280.082031 46.242188 L 237.707031 126.253906 C 234.753906 131.832031 238.796875 138.546875 245.109375 138.546875 L 363.261719 138.546875 C 369.320312 138.546875 374.507812 143.28125 374.625 149.339844 " fill-opacity="1" fill-rule="nonzero"/></g></svg>