<svg version="1.1" id="Layer_1" xmlns="http://www.w3.org/2000/svg" xmlns:xlink="http://www.w3.org/1999/xlink" x="0px" y="0px"
	 width="100%" viewBox="0 0 1024 1024" enable-background="new 0 0 1024 1024" xml:space="preserve">
<path fill="#000000" opacity="1.000000" stroke="none" 
	d="
M652.000000,1025.000000 
	C434.666656,1025.000000 217.833328,1025.000000 1.000000,1025.000000 
	C1.000000,683.666687 1.000000,342.333344 1.000000,1.000000 
	C342.333344,1.000000 683.666687,1.000000 1025.000000,1.000000 
	C1025.000000,342.333344 1025.000000,683.666687 1025.000000,1025.000000 
	C900.833313,1025.000000 776.666687,1025.000000 652.000000,1025.000000 
M655.509644,706.989746 
	C655.678833,706.933472 655.847961,706.877197 656.725708,706.981995 
	C660.504456,703.317078 664.283203,699.652100 668.642517,695.723816 
	C669.769714,694.467590 670.896973,693.211365 672.664185,691.930664 
	C673.127563,691.623657 673.590881,691.316711 673.996765,690.996216 
	C673.996765,690.996216 673.997742,691.055237 674.702271,690.994751 
	C677.152893,688.323486 679.603455,685.652283 681.982056,682.984070 
	C681.982056,682.984070 681.979126,683.056091 682.687988,682.971924 
	C683.477295,681.974365 684.266663,680.976868 684.984131,679.983154 
	C684.984131,679.983154 684.982117,680.055054 685.698120,680.006653 
	C686.483704,679.002441 687.269348,677.998230 687.993103,676.992004 
	C687.993103,676.992004 687.997620,677.053650 688.718018,677.012695 
	C691.830566,673.001160 694.943054,668.989624 697.983276,664.982483 
	C697.983276,664.982483 697.981445,665.054993 698.716431,665.049744 
	C703.114319,659.369202 707.512207,653.688721 711.999084,647.257385 
	C714.033875,642.710388 718.178528,638.967224 717.306580,633.289551 
	C717.262512,633.002197 718.017456,632.644775 718.295959,632.246887 
	C720.774475,628.705383 723.229492,625.147461 726.217468,621.178955 
	C727.489197,618.806396 728.760925,616.433838 730.667236,613.771851 
	C733.715332,609.805176 736.458008,605.543640 739.910278,601.967102 
	C742.568298,599.213562 743.004028,597.356140 738.591553,595.004578 
	C747.169189,595.004578 754.604065,595.084106 762.035950,594.968567 
	C765.386353,594.916504 768.730774,594.475769 772.778076,593.772766 
	C773.186584,591.917114 773.950623,590.061768 773.952148,588.205750 
	C774.003296,525.977905 773.981812,463.750031 773.970947,401.522156 
	C773.970642,399.764191 773.970947,398.006226 773.970947,395.992920 
	C767.346802,395.992920 761.315186,396.521454 755.422302,395.843689 
	C749.572632,395.170929 743.093567,396.077209 738.311951,391.103912 
	C736.371155,389.085388 734.439453,386.803558 732.031738,385.541901 
	C727.148010,382.982666 722.279541,380.577026 719.049316,375.157684 
	C713.880737,368.109467 708.870667,360.936615 703.471008,354.070129 
	C701.082458,351.032623 697.904785,348.615631 694.999146,345.177338 
	C691.445618,340.768890 688.424011,335.755859 684.234497,332.070465 
	C673.595276,322.711456 662.726868,313.553864 651.381042,305.077423 
	C643.282532,299.027008 634.361389,294.041351 625.618286,288.902191 
	C619.435242,285.267792 613.089722,281.823334 606.537231,278.926208 
	C598.942505,275.568298 591.099121,272.738495 583.254517,269.991302 
	C577.643250,268.026184 571.901123,266.378662 566.130005,264.939667 
	C557.521729,262.793182 548.894958,260.621948 540.165527,259.092041 
	C533.250488,257.880096 526.169434,257.615540 518.718750,256.156128 
	C508.093506,256.071594 497.468323,255.968155 486.842957,255.947052 
	C486.168060,255.945724 485.491882,256.584137 483.983795,256.969971 
	C476.378937,258.303589 468.706970,259.340118 461.184540,261.038757 
	C449.201019,263.744781 437.297943,266.817535 425.400391,269.888458 
	C420.574066,271.134155 415.527924,272.142944 411.141296,274.364319 
	C396.910095,281.570984 382.937958,289.289124 368.247192,296.992065 
	C367.453003,297.646423 366.658813,298.300812 365.243530,299.257751 
	C361.115997,302.108795 356.988434,304.959839 352.238495,307.949615 
	C351.769592,308.271088 351.300690,308.592560 350.234558,309.251892 
	C342.875580,315.610504 335.509857,321.961365 328.161407,328.332153 
	C325.677521,330.485596 323.237488,332.689575 320.230835,335.151123 
	C319.417938,336.055725 318.605042,336.960327 317.190643,338.153198 
	C316.079773,339.736847 314.968903,341.320496 313.211060,343.183044 
	C309.751801,348.775452 306.292542,354.367889 302.191162,360.248535 
	C297.776947,366.735229 293.362762,373.221954 288.852325,379.820526 
	C288.852325,379.820526 288.935974,379.942108 288.428070,379.979553 
	C288.236938,380.243439 288.045776,380.507324 287.193970,381.118500 
	C281.425079,382.402252 275.607117,383.504852 269.908630,385.048553 
	C267.186615,385.785980 264.511841,387.114471 262.246643,388.766235 
	C261.799377,389.092377 263.324188,392.123016 263.907440,393.813446 
	C262.085571,393.935181 259.773193,394.044006 257.469849,394.252472 
	C251.630798,394.780853 245.774841,395.923462 239.966461,395.709961 
	C236.057480,395.566315 235.007568,396.743469 235.017868,400.136169 
	C235.040604,407.627777 235.012085,415.119507 235.022568,422.611206 
	C235.057693,447.743073 235.100769,472.874939 235.020950,498.932831 
	C235.072266,503.946991 235.123566,508.961121 235.039368,514.734741 
	C235.079620,515.503479 235.119873,516.272156 235.016708,517.815369 
	C235.064316,518.860901 235.111908,519.906372 235.008789,521.869812 
	C235.050659,525.591125 235.092514,529.312500 235.018784,533.952515 
	C235.397583,538.967896 235.776382,543.983337 235.860031,549.600647 
	C235.632050,552.737915 235.404068,555.875183 235.035507,559.937439 
	C235.074631,568.281494 235.113754,576.625610 235.001282,585.812012 
	C234.974167,593.814575 235.685654,594.475586 245.664734,594.997131 
	C248.526077,594.958862 251.387421,594.920593 255.152512,594.772339 
	C260.867218,594.772339 266.581909,594.772339 272.296631,594.772339 
	C272.325287,595.116028 272.353943,595.459717 272.382629,595.803345 
	C269.237122,596.391846 266.091644,596.980347 261.692108,597.803406 
	C268.797302,601.792603 274.768951,605.145386 280.721039,608.487122 
	C280.286621,609.209351 273.644562,605.974243 277.066010,612.684692 
	C278.026917,613.472290 278.987793,614.259888 279.990234,615.810608 
	C282.319916,619.550110 284.649597,623.289612 287.004974,627.802124 
	C289.361786,635.523193 293.366364,642.277405 299.222076,648.768799 
	C300.484467,650.197937 301.746826,651.627014 303.011292,652.988525 
	C303.011292,652.988525 302.943878,652.983459 302.980835,653.710999 
	C303.445953,654.741821 303.722931,655.922363 304.405731,656.779846 
	C310.300903,664.183105 316.028076,671.741760 322.296692,678.818848 
	C326.804657,683.908142 332.064178,688.331726 337.005005,693.000854 
	C337.005005,693.000854 336.951782,693.010376 336.944855,693.751221 
	C339.629852,695.851807 342.314850,697.952393 345.005066,699.989990 
	C345.005066,699.989990 344.941925,699.989685 345.059174,700.539795 
	C345.374634,700.712524 345.690094,700.885193 346.005188,700.997498 
	C346.005188,700.997498 345.946228,701.010742 346.154388,701.656799 
	C352.107422,706.123047 358.060425,710.589233 364.011078,714.989685 
	C364.011078,714.989685 363.945251,714.991333 363.944733,715.747192 
	C365.971100,716.849731 367.997467,717.952209 370.015961,718.983398 
	C370.015961,718.983398 369.944183,718.985291 370.001617,719.707703 
	C372.007080,720.824158 374.012543,721.940613 376.013214,722.989990 
	C376.013214,722.989990 375.946075,722.992126 375.941833,723.765869 
	C379.017059,725.775940 381.984070,727.980408 385.185944,729.763000 
	C400.247711,738.148010 416.050629,744.813293 432.541779,749.850830 
	C433.814087,750.239502 434.931641,751.273315 436.208008,751.486023 
	C441.440704,752.358093 446.707031,753.028076 452.759216,753.928162 
	C454.009613,754.652161 455.195496,755.840210 456.520935,756.024597 
	C464.961548,757.198303 473.432892,758.150696 482.461548,759.827454 
	C491.520325,760.135254 500.611786,761.068115 509.629883,760.597046 
	C521.671021,759.968201 533.671631,758.382080 545.651917,756.901855 
	C548.528992,756.546448 551.257385,754.987732 553.975342,753.970093 
	C553.975342,753.970093 553.953491,754.046753 554.828003,753.970703 
	C560.703125,752.652222 566.632385,751.533936 572.439209,749.962952 
	C579.203003,748.133057 586.214966,746.659912 592.489441,743.697815 
	C605.954590,737.341309 620.277771,732.572998 632.279114,723.336914 
	C634.189453,721.866699 636.129211,720.434753 637.982910,718.983337 
	C637.982910,718.983337 637.975037,719.055420 638.735535,719.014404 
	C643.841980,715.340881 648.948425,711.667297 653.988098,707.991821 
	C653.988098,707.991821 653.984863,708.058594 654.541870,707.938721 
	C654.713684,707.617737 654.885498,707.296753 654.981323,706.980347 
	C654.981323,706.980347 654.979126,707.056396 655.509644,706.989746 
z"/>
<path fill="#030815" opacity="1.000000" stroke="none" 
	d="
M672.024170,691.955139 
	C670.896973,693.211365 669.769714,694.467590 668.005859,695.885132 
	C663.901550,698.993225 660.433899,701.940063 656.706909,704.972290 
	C656.236206,705.337402 656.024841,705.617004 655.869202,705.892273 
	C655.924927,705.887939 655.832397,705.825195 655.547241,705.920654 
	C655.167786,706.362915 655.073486,706.709656 654.979126,707.056396 
	C654.979126,707.056396 654.981323,706.980347 654.664917,706.939331 
	C654.227234,707.285034 654.106018,707.671814 653.984863,708.058594 
	C653.984863,708.058594 653.988098,707.991821 653.678650,707.828064 
	C648.237793,711.461365 643.106445,715.258362 637.975037,719.055420 
	C637.975037,719.055420 637.982910,718.983337 637.660156,718.862793 
	C615.960876,732.179138 593.160461,742.423645 568.877563,749.375732 
	C563.867737,750.809998 558.926392,752.483459 553.953491,754.046753 
	C553.953491,754.046753 553.975342,753.970093 553.588501,753.843872 
	C541.057800,755.222656 528.948975,757.241760 516.759155,758.073914 
	C506.549072,758.770935 496.244354,758.081543 485.788330,757.860962 
	C485.148743,757.755127 484.702393,757.794312 483.906677,757.703918 
	C483.064697,757.562805 482.572052,757.551331 481.644714,757.381042 
	C471.458435,755.886536 461.706848,754.550842 451.576111,753.114502 
	C426.317932,747.126831 402.796844,737.862427 380.782898,724.809326 
	C379.324280,723.944458 377.565338,723.586060 375.946075,722.992126 
	C375.946075,722.992126 376.013214,722.989990 376.098450,722.667969 
	C374.103851,721.225708 372.024017,720.105469 369.944183,718.985291 
	C369.944183,718.985291 370.015961,718.983398 370.064636,718.662598 
	C368.057251,717.225037 366.001251,716.108215 363.945251,714.991333 
	C363.945251,714.991333 364.011078,714.989685 364.110046,714.676270 
	C359.689362,710.756531 355.213776,707.092590 350.623352,703.578613 
	C349.227173,702.509888 347.514160,701.855103 345.946228,701.010742 
	C345.946228,701.010742 346.005188,700.997498 346.158386,700.649902 
	C345.855042,700.198059 345.398468,700.093872 344.941925,699.989685 
	C344.941925,699.989685 345.005066,699.989990 345.198792,699.695923 
	C342.578918,697.271362 339.765350,695.140869 336.951782,693.010376 
	C336.951782,693.010376 337.005005,693.000854 337.269958,692.732239 
	C336.986542,691.645386 336.522369,690.753113 335.877045,690.020203 
	C327.486115,680.490723 319.078491,670.975891 310.653992,661.476074 
	C308.117279,658.615601 305.515747,655.812744 302.943878,652.983459 
	C302.943878,652.983459 303.011292,652.988525 303.162506,652.671509 
	C302.762939,651.003296 302.212158,649.652161 301.604218,648.160767 
	C302.512207,648.116577 303.169281,648.056580 303.826324,648.056641 
	C415.085999,648.066345 526.345703,648.094849 637.605347,648.082703 
	C661.084351,648.080139 684.563416,647.929016 708.102905,647.916138 
	C708.163391,647.986023 708.322266,647.891785 708.429260,648.278931 
	C707.462708,650.485901 706.455933,652.349487 705.301819,654.116760 
	C702.903076,657.789856 700.426208,661.411926 697.981445,665.054993 
	C697.981445,665.054993 697.983276,664.982483 697.671082,664.919678 
	C694.238464,668.922485 691.118042,672.988098 687.997620,677.053650 
	C687.997620,677.053650 687.993103,676.992004 687.680542,676.818604 
	C686.572754,677.781860 685.777405,678.918457 684.982117,680.055054 
	C684.982117,680.055054 684.984131,679.983154 684.665710,679.907715 
	C683.557922,680.906860 682.768494,681.981506 681.979126,683.056091 
	C681.979126,683.056091 681.982056,682.984070 681.670410,682.889526 
	C678.905090,685.548340 676.451416,688.301819 673.997742,691.055237 
	C673.997742,691.055237 673.996765,690.996216 673.760498,690.752441 
	C673.024231,690.990845 672.524170,691.472961 672.024170,691.955139 
M491.661713,680.880554 
	C492.126495,680.310547 492.591309,679.740540 493.672791,678.628845 
	C495.290405,671.786194 491.958862,667.865356 484.329498,667.860962 
	C447.375061,667.839478 410.420563,667.887451 373.466217,667.831116 
	C369.838409,667.825562 366.600372,668.426392 365.403961,672.195496 
	C364.230927,675.890930 365.458496,679.053406 369.243683,681.629150 
	C369.796417,681.830627 370.349182,682.032104 371.580353,682.733032 
	C373.232727,682.871582 374.884430,683.122559 376.537537,683.132141 
	C412.489532,683.340332 448.441681,683.569824 484.393890,683.592773 
	C486.637726,683.594177 488.882568,681.935974 491.661713,680.880554 
M409.775726,711.509338 
	C414.009491,717.885071 419.913788,719.934509 427.514282,719.720520 
	C443.978394,719.256836 460.463928,719.607727 476.936859,719.365540 
	C480.833679,719.308289 483.156555,720.260071 485.012268,723.981506 
	C488.825623,731.628601 496.483795,734.937378 504.587646,733.195740 
	C511.964447,731.610352 517.204834,725.315247 517.943787,717.151245 
	C518.559204,710.352112 513.215576,701.799988 506.718811,699.186462 
	C499.842102,696.420105 490.714630,698.911255 485.805206,704.505859 
	C484.635254,705.839111 482.438782,706.986389 480.704742,707.000183 
	C461.730133,707.151306 442.753632,707.058655 423.777618,707.036194 
	C418.195587,707.029602 412.613586,707.035217 406.228577,707.035217 
	C407.548828,708.732361 408.407074,709.835693 409.775726,711.509338 
M525.444458,680.787109 
	C528.083984,690.646362 534.845947,694.990173 544.423340,692.978943 
	C551.520203,691.488647 556.719238,683.700012 555.543762,676.319763 
	C554.203857,667.907837 546.423767,662.037720 537.882812,662.994446 
	C530.202942,663.854736 524.775818,671.146729 525.444458,680.787109 
M592.828491,663.158752 
	C592.001343,663.087402 591.175110,662.968140 590.346924,662.952026 
	C581.933716,662.788635 575.064636,669.107483 574.907959,677.136536 
	C574.737976,685.847778 580.987549,692.795105 589.277283,693.110168 
	C598.908203,693.476257 605.097656,688.061462 605.363770,678.815125 
	C605.600464,670.591003 600.673828,666.141907 592.828491,663.158752 
M625.337219,664.417053 
	C623.867432,665.755127 622.241455,666.959167 620.956421,668.455872 
	C616.729492,673.378967 616.275757,680.128052 619.610596,686.059265 
	C622.700806,691.555359 627.906982,693.953186 634.820190,693.064636 
	C640.417725,692.345215 645.643494,687.948059 646.816772,682.593811 
	C648.140198,676.554688 647.197510,670.989380 642.324646,666.665771 
	C637.477539,662.364990 631.963989,661.892456 625.337219,664.417053 
z"/>
<path fill="#468ACC" opacity="1.000000" stroke="none" 
	d="
M235.140808,498.006805 
	C235.100769,472.874939 235.057693,447.743073 235.022568,422.611206 
	C235.012085,415.119507 235.040604,407.627777 235.017868,400.136169 
	C235.007568,396.743469 236.057480,395.566315 239.966461,395.709961 
	C245.774841,395.923462 251.630798,394.780853 257.469849,394.252472 
	C259.773193,394.044006 262.085571,393.935181 263.907440,393.813446 
	C263.324188,392.123016 261.799377,389.092377 262.246643,388.766235 
	C264.511841,387.114471 267.186615,385.785980 269.908630,385.048553 
	C275.607117,383.504852 281.425079,382.402252 287.761292,380.901245 
	C288.629242,380.517151 288.831696,380.269867 288.935974,379.942108 
	C288.935974,379.942108 288.852325,379.820526 289.223450,379.888733 
	C291.426575,380.950684 293.180359,382.530365 295.110687,382.788300 
	C297.469666,383.103485 299.979218,382.018951 302.419434,382.039612 
	C333.685120,382.303986 364.949799,382.873596 396.215332,382.917480 
	C419.241608,382.949799 442.268433,382.072174 465.295624,382.038452 
	C544.888245,381.921875 624.481201,381.990692 704.074036,382.020721 
	C707.715332,382.022095 711.358948,382.479675 714.996582,382.421112 
	C716.338318,382.399506 717.665955,381.500183 719.052612,381.121094 
	C719.177490,381.286194 719.249695,381.331390 719.321899,381.376617 
	C719.214600,381.250824 719.107300,381.125031 719.005432,380.572601 
	C719.019836,378.723358 719.028748,377.300751 719.037659,375.878113 
	C722.279541,380.577026 727.148010,382.982666 732.031738,385.541901 
	C734.439453,386.803558 736.371155,389.085388 738.311951,391.103912 
	C743.093567,396.077209 749.572632,395.170929 755.422302,395.843689 
	C761.315186,396.521454 767.346802,395.992920 773.970947,395.992920 
	C773.970947,398.006226 773.970642,399.764191 773.970947,401.522156 
	C773.981812,463.750031 774.003296,525.977905 773.952148,588.205750 
	C773.950623,590.061768 773.186584,591.917114 772.345703,593.572205 
	C771.851257,593.093201 771.789246,592.814758 771.691772,592.401550 
	C771.656250,592.266724 771.848145,592.063965 772.165283,591.776672 
	C772.655823,590.022888 772.980225,588.556458 772.980896,587.089905 
	C773.007263,525.992371 773.011230,464.894775 772.968262,403.797241 
	C772.967163,402.213257 772.413208,400.629669 771.950623,398.683044 
	C771.248657,397.993958 770.711365,397.380188 770.177795,397.383301 
	C753.112610,397.483032 736.047791,397.642456 718.598389,397.656281 
	C717.144226,397.610077 716.074646,397.700500 714.560669,397.635040 
	C707.317017,397.459198 700.517334,397.377167 693.718750,397.433807 
	C683.458618,397.519287 673.199402,397.701599 662.584534,397.756531 
	C661.505432,397.728241 660.781494,397.786133 659.682251,397.683594 
	C644.828613,397.450348 630.350098,397.287292 615.872070,397.330841 
	C602.242310,397.371826 588.613281,397.630615 574.573425,397.653442 
	C572.441650,397.594818 570.720398,397.676361 568.561035,397.587219 
	C563.082336,397.526550 558.041809,397.636597 552.679138,397.639954 
	C551.920044,397.618134 551.482971,397.703064 550.603149,397.636108 
	C545.765930,397.620392 541.371521,397.756592 536.541931,397.807434 
	C533.746704,397.773102 531.386719,397.824097 528.661865,397.697357 
	C513.981506,397.472473 499.665802,397.386536 485.350220,397.401245 
	C480.876617,397.405823 476.403320,397.682007 471.529846,397.746857 
	C469.772369,397.718170 468.414856,397.776489 466.682037,397.674591 
	C465.642090,397.476562 464.977509,397.405823 464.312897,397.405670 
	C390.337769,397.391174 316.362671,397.380981 242.387558,397.380341 
	C241.088303,397.380310 239.789062,397.498657 238.252045,397.573303 
	C238.252045,430.373688 238.252045,462.909698 238.252045,495.952087 
	C240.318893,495.952087 241.943802,495.951996 243.568695,495.952087 
	C279.056824,495.953979 314.544983,495.952576 350.033112,495.962616 
	C353.698151,495.963654 357.380127,495.823364 361.024445,496.117432 
	C367.084351,496.606354 369.794006,500.079071 368.824707,506.129242 
	C367.689514,506.826691 366.845978,507.417847 365.845184,507.796997 
	C365.296600,507.581512 364.905273,507.577942 364.513947,507.574402 
	C364.681763,508.049469 364.849579,508.524567 364.857391,509.239563 
	C364.127258,509.982391 363.557098,510.485260 362.647034,510.924042 
	C361.019531,506.684509 359.900787,502.524445 364.415985,498.319794 
	C357.184479,498.319794 350.719971,497.268219 344.797119,498.609039 
	C338.600372,500.011871 333.019653,500.134399 326.889587,498.702881 
	C322.487335,497.674866 316.766907,496.753235 313.294800,498.718048 
	C309.192139,501.039764 305.503998,500.813049 301.528198,500.954132 
	C296.374023,501.137024 291.206848,501.069977 286.048676,500.956360 
	C284.432129,500.920715 282.470032,500.867432 281.285736,499.987915 
	C278.281616,497.756805 275.957977,498.092377 272.741180,499.927185 
	C268.043854,502.606415 262.089325,504.073608 257.746521,500.516571 
	C254.029938,497.472382 251.180847,497.755402 247.445282,498.986908 
	C246.135727,499.418640 244.627960,499.594147 243.262207,499.437531 
	C240.536240,499.124847 237.845871,498.501740 235.140808,498.006805 
z"/>
<path fill="#4488CB" opacity="1.000000" stroke="none" 
	d="
M771.727234,592.536377 
	C771.789246,592.814758 771.851257,593.093201 771.995605,593.791504 
	C768.730774,594.475769 765.386353,594.916504 762.035950,594.968567 
	C754.604065,595.084106 747.169189,595.004578 738.591553,595.004578 
	C743.004028,597.356140 742.568298,599.213562 739.910278,601.967102 
	C736.458008,605.543640 733.715332,609.805176 730.225098,613.690186 
	C729.510620,613.402832 729.238342,613.197266 728.960205,612.664062 
	C728.621582,611.842468 728.288757,611.348450 727.636475,610.596924 
	C725.500732,610.229553 723.684509,610.023560 721.868225,610.023254 
	C576.329285,610.001465 430.790314,609.992249 285.251373,610.029968 
	C283.524414,610.030396 281.797607,610.650024 279.861816,611.109497 
	C279.341492,611.401367 279.148834,611.654663 278.759827,611.998535 
	C278.024384,611.998962 277.604156,611.999084 277.183899,611.999207 
	C273.644562,605.974243 280.286621,609.209351 280.721039,608.487122 
	C274.768951,605.145386 268.797302,601.792603 261.692108,597.803406 
	C266.091644,596.980347 269.237122,596.391846 272.382629,595.803345 
	C272.353943,595.459717 272.325287,595.116028 272.296631,594.772339 
	C266.581909,594.772339 260.867218,594.772339 254.591766,594.544189 
	C254.039169,593.913574 254.047318,593.511108 254.514130,593.191223 
	C262.442993,593.262146 269.913177,593.249939 277.383392,593.239014 
	C311.909241,593.188721 346.435120,593.138733 381.328613,593.261414 
	C386.811768,593.319946 391.927307,593.205688 397.491791,593.179077 
	C401.292908,593.168945 404.645050,593.071045 408.435242,593.060303 
	C411.250000,593.083191 413.626709,593.018982 416.465698,593.037476 
	C476.816589,593.137146 536.705139,593.165710 596.593689,593.162903 
	C611.061646,593.162231 625.529602,593.057556 640.457275,593.103333 
	C651.611206,593.145203 662.305298,593.084473 673.462769,593.102295 
	C690.617249,593.146729 707.308411,593.112549 724.368591,593.174438 
	C725.492004,593.208801 726.246399,593.147095 727.462891,593.173340 
	C736.623291,593.143799 745.321594,593.026306 754.448792,592.992676 
	C756.911194,593.022766 758.944763,592.969116 761.354370,592.990845 
	C762.492432,593.016174 763.254456,592.966187 764.445190,592.998779 
	C767.158325,592.899719 769.442810,592.718018 771.727234,592.536377 
z"/>
<path fill="#498BCF" opacity="1.000000" stroke="none" 
	d="
M725.691406,621.594299 
	C723.229492,625.147461 720.774475,628.705383 718.295959,632.246887 
	C718.017456,632.644775 717.262512,633.002197 717.306580,633.289551 
	C718.178528,638.967224 714.033875,642.710388 711.593201,647.637695 
	C710.232300,647.975891 709.277283,647.933838 708.322266,647.891785 
	C708.322266,647.891785 708.163391,647.986023 708.025024,647.588318 
	C706.452393,646.773621 705.008179,645.966919 703.585510,646.003357 
	C694.838196,646.227051 686.097412,646.850952 677.351196,646.920410 
	C671.229126,646.968994 665.099487,646.046387 658.977173,646.091614 
	C648.753784,646.167114 638.533752,646.913452 628.311951,646.921265 
	C618.855835,646.928467 609.399475,646.089966 599.942810,646.081360 
	C590.986511,646.073242 582.030640,646.870544 573.072632,646.913879 
	C566.449890,646.945923 559.826233,646.131714 553.198914,646.055664 
	C540.285461,645.907349 527.367981,645.912354 514.454407,646.055115 
	C508.160065,646.124695 501.870209,646.907410 495.579285,646.894775 
	C488.621338,646.880798 481.662445,646.015137 474.707520,646.060791 
	C443.429169,646.266235 412.152740,646.756531 380.874390,646.961426 
	C357.221466,647.116394 333.566559,647.034363 309.913147,646.924072 
	C307.983429,646.915100 306.058533,645.874207 303.511932,645.132324 
	C302.425079,645.840210 300.675629,646.979675 298.926208,648.119080 
	C293.366364,642.277405 289.361786,635.523193 286.981537,627.415466 
	C286.958099,627.028809 286.940216,627.041748 287.320496,626.957520 
	C289.526520,629.608398 291.644012,630.990967 295.371063,630.986450 
	C432.194519,630.820496 569.018311,630.733337 705.841553,630.967773 
	C714.468018,630.982544 721.149719,629.987671 724.326721,621.063843 
	C724.373047,620.933777 724.584290,620.862488 724.957275,620.976685 
	C725.361206,621.324463 725.526306,621.459351 725.691406,621.594299 
z"/>
<path fill="#4B8FCF" opacity="1.000000" stroke="none" 
	d="
M302.833282,359.960297 
	C306.292542,354.367889 309.751801,348.775452 313.814392,343.169495 
	C315.172180,343.451172 315.926636,343.746368 317.067413,344.030029 
	C317.963287,344.069122 318.472870,344.119751 319.104187,344.546906 
	C321.094696,345.281464 322.962982,345.949646 324.832153,345.952057 
	C369.377319,346.009735 413.922638,345.995880 458.467896,345.995117 
	C467.626038,345.994965 476.800049,345.698273 485.931976,346.187683 
	C488.455322,346.322937 491.323700,348.401947 493.034729,350.431458 
	C493.579407,351.077454 491.390808,355.457184 489.577942,356.348145 
	C486.329773,357.944580 482.424774,358.857758 478.782959,358.893341 
	C456.549988,359.110748 434.313812,359.000854 412.078705,359.000000 
	C377.943848,358.998657 343.808990,358.978790 309.674225,359.037262 
	C307.393372,359.041168 305.113586,359.638824 302.833282,359.960297 
z"/>
<path fill="#468FD7" opacity="1.000000" stroke="none" 
	d="
M236.155167,548.998718 
	C235.776382,543.983337 235.397583,538.967896 235.349991,533.616211 
	C236.430420,533.523376 237.179642,533.766785 237.990616,534.223022 
	C238.052353,534.435791 238.073608,534.878540 238.085724,535.247925 
	C239.588837,539.920166 242.749466,536.838501 244.897842,536.850464 
	C279.638702,537.045166 314.383270,536.791138 349.120483,537.197205 
	C354.425262,537.259216 360.556152,534.713806 365.392578,540.369812 
	C368.098022,543.533691 368.769012,544.369446 365.249512,546.890137 
	C361.380371,549.661316 357.473236,550.630432 352.409760,550.294495 
	C343.353210,549.693604 334.191620,550.928345 325.074402,550.919678 
	C315.536011,550.910522 306.000366,550.233765 296.459625,550.038208 
	C276.359467,549.626160 256.256805,549.337830 236.155167,548.998718 
z"/>
<path fill="#4A87BB" opacity="1.000000" stroke="none" 
	d="
M302.512207,360.104431 
	C305.113586,359.638824 307.393372,359.041168 309.674225,359.037262 
	C343.808990,358.978790 377.943848,358.998657 412.078705,359.000000 
	C434.313812,359.000854 456.549988,359.110748 478.782959,358.893341 
	C482.424774,358.857758 486.329773,357.944580 489.577942,356.348145 
	C491.390808,355.457184 493.579407,351.077454 493.034729,350.431458 
	C491.323700,348.401947 488.455322,346.322937 485.931976,346.187683 
	C476.800049,345.698273 467.626038,345.994965 458.467896,345.995117 
	C413.922638,345.995880 369.377319,346.009735 324.832153,345.952057 
	C322.962982,345.949646 321.094696,345.281464 319.567810,344.463379 
	C375.214111,343.956635 430.518646,343.903198 485.823151,343.873199 
	C491.727417,343.869995 495.977783,347.201508 496.108887,351.771606 
	C496.256256,356.910400 492.506500,360.000732 485.835693,360.064819 
	C478.006989,360.140076 470.177185,360.113525 462.347870,360.112366 
	C411.540436,360.104858 360.733032,360.082520 309.925629,360.122955 
	C308.210449,360.124298 305.728760,360.134064 304.908051,361.171417 
	C300.335297,366.951050 296.165009,373.049164 291.465851,379.582336 
	C434.267029,379.582336 576.041687,379.582336 718.698914,379.582336 
	C717.488525,377.502808 716.825439,376.030212 715.872070,374.778778 
	C708.716736,365.386078 701.504272,356.037018 694.503540,346.484955 
	C694.826782,346.169403 694.956055,346.043182 695.085327,345.916962 
	C697.904785,348.615631 701.082458,351.032623 703.471008,354.070129 
	C708.870667,360.936615 713.880737,368.109467 719.043457,375.517883 
	C719.028748,377.300751 719.019836,378.723358 719.005432,380.572998 
	C719.000000,381.000000 719.000000,381.001221 719.000000,381.001221 
	C717.665955,381.500183 716.338318,382.399506 714.996582,382.421112 
	C711.358948,382.479675 707.715332,382.022095 704.074036,382.020721 
	C624.481201,381.990692 544.888245,381.921875 465.295624,382.038452 
	C442.268433,382.072174 419.241608,382.949799 396.215332,382.917480 
	C364.949799,382.873596 333.685120,382.303986 302.419434,382.039612 
	C299.979218,382.018951 297.469666,383.103485 295.110687,382.788300 
	C293.180359,382.530365 291.426575,380.950684 289.271545,379.832825 
	C293.362762,373.221954 297.776947,366.735229 302.512207,360.104431 
z"/>
<path fill="#468FD7" opacity="1.000000" stroke="none" 
	d="
M235.080872,498.469818 
	C237.845871,498.501740 240.536240,499.124847 243.262207,499.437531 
	C244.627960,499.594147 246.135727,499.418640 247.445282,498.986908 
	C251.180847,497.755402 254.029938,497.472382 257.746521,500.516571 
	C262.089325,504.073608 268.043854,502.606415 272.741180,499.927185 
	C275.957977,498.092377 278.281616,497.756805 281.285736,499.987915 
	C282.470032,500.867432 284.432129,500.920715 286.048676,500.956360 
	C291.206848,501.069977 296.374023,501.137024 301.528198,500.954132 
	C305.503998,500.813049 309.192139,501.039764 313.294800,498.718048 
	C316.766907,496.753235 322.487335,497.674866 326.889587,498.702881 
	C333.019653,500.134399 338.600372,500.011871 344.797119,498.609039 
	C350.719971,497.268219 357.184479,498.319794 364.415985,498.319794 
	C359.900787,502.524445 361.019531,506.684509 362.347260,511.213226 
	C360.584534,511.711670 358.781708,511.982361 356.978729,511.983459 
	C319.278259,512.006348 281.577789,511.985992 243.877396,512.034180 
	C241.967133,512.036621 240.057541,512.577759 237.831848,512.920044 
	C236.735657,513.306396 235.955261,513.640869 235.174866,513.975281 
	C235.123566,508.961121 235.072266,503.946991 235.080872,498.469818 
z"/>
<path fill="#4A87BB" opacity="1.000000" stroke="none" 
	d="
M368.866058,296.810303 
	C382.937958,289.289124 396.910095,281.570984 411.141296,274.364319 
	C415.527924,272.142944 420.574066,271.134155 425.400391,269.888458 
	C437.297943,266.817535 449.201019,263.744781 461.184540,261.038757 
	C468.706970,259.340118 476.378937,258.303589 484.878357,256.997742 
	C496.902649,256.993805 508.032379,256.962036 519.162109,256.930298 
	C526.169434,257.615540 533.250488,257.880096 540.165527,259.092041 
	C548.894958,260.621948 557.521729,262.793182 566.130005,264.939667 
	C571.901123,266.378662 577.643250,268.026184 583.254517,269.991302 
	C591.099121,272.738495 598.942505,275.568298 606.537231,278.926208 
	C613.089722,281.823334 619.435242,285.267792 625.618286,288.902191 
	C634.361389,294.041351 643.282532,299.027008 651.381042,305.077423 
	C662.726868,313.553864 673.595276,322.711456 684.234497,332.070465 
	C688.424011,335.755859 691.445618,340.768890 695.042236,345.547150 
	C694.956055,346.043182 694.826782,346.169403 694.259033,346.271912 
	C693.241455,345.652313 692.641663,345.074982 692.086304,344.457764 
	C669.554199,319.415680 643.293701,299.236115 613.059570,284.365936 
	C569.719604,263.049866 524.045044,254.111084 475.939697,260.117859 
	C435.458405,265.172668 398.436615,279.807159 364.411713,302.252258 
	C349.056580,312.381531 335.333435,324.430908 322.023254,337.027710 
	C321.961548,336.967865 321.837250,336.849091 321.849518,336.543732 
	C321.500336,335.782410 321.138855,335.326416 320.777405,334.870453 
	C323.237488,332.689575 325.677521,330.485596 328.161407,328.332153 
	C335.509857,321.961365 342.875580,315.610504 350.854309,309.094727 
	C351.936340,308.562012 352.398621,308.186432 352.860870,307.810883 
	C356.988434,304.959839 361.115997,302.108795 365.896179,299.092957 
	C367.321198,298.222198 368.093628,297.516235 368.866058,296.810303 
z"/>
<path fill="#040C1C" opacity="1.000000" stroke="none" 
	d="
M254.055450,593.108704 
	C254.047318,593.511108 254.039169,593.913574 254.139893,594.599121 
	C251.387421,594.920593 248.526077,594.958862 245.166199,594.565796 
	C242.547195,593.610474 240.426712,593.086487 237.786102,592.434021 
	C237.786102,587.212708 237.786102,582.124817 237.835815,576.568604 
	C237.773514,568.430359 237.661499,560.760437 237.870209,552.769653 
	C240.499954,552.322388 242.808762,552.090271 245.118027,552.085632 
	C284.390747,552.007141 323.663513,551.956726 362.832031,552.233276 
	C363.490143,553.379883 364.164673,554.307373 365.036072,554.979431 
	C366.255157,555.919556 367.621033,556.669373 368.924103,557.500610 
	C368.670593,557.928650 368.417084,558.356628 368.163574,558.784668 
	C364.595642,558.975952 361.027740,559.167236 357.030090,559.381592 
	C357.612274,557.637939 358.101044,556.174194 358.915558,553.734741 
	C354.819427,553.539795 351.190277,553.367065 347.522919,553.192566 
	C348.766632,557.261169 351.162354,561.372681 350.167206,562.505554 
	C346.407867,566.785278 349.204590,569.277954 352.463196,572.712280 
	C347.634888,573.401123 344.527771,576.124023 339.626373,574.494202 
	C336.049988,573.304871 331.350677,572.466125 327.504120,576.187012 
	C324.880341,578.725037 316.091766,576.339905 315.408600,572.763672 
	C314.241943,566.656433 314.317383,560.311890 313.849121,553.759644 
	C311.955994,553.519226 309.531525,554.276733 308.737366,558.094238 
	C308.522156,559.128723 307.024597,560.776062 306.302612,560.683533 
	C301.409729,560.056152 296.566986,559.037720 290.911896,557.999512 
	C296.311554,555.458374 302.748474,559.411865 307.600555,553.004883 
	C293.633545,553.004883 281.018036,552.766724 268.416901,553.089478 
	C260.167297,553.300781 251.915771,554.138733 243.719635,555.141663 
	C242.096649,555.340271 239.438034,557.580017 239.448074,558.861328 
	C239.500885,565.595276 236.798950,572.645020 241.769928,579.021240 
	C243.002396,580.602173 242.751236,583.790588 242.349243,586.094727 
	C241.656830,590.063538 243.167313,591.677185 246.914719,592.021973 
	C249.308029,592.242126 251.676071,592.737000 254.055450,593.108704 
M339.099884,555.839905 
	C331.870483,555.839905 324.641113,555.839905 317.266846,555.839905 
	C317.266846,561.786560 317.266846,567.277039 317.266846,572.943237 
	C326.440155,572.943237 335.190277,572.943237 344.797272,572.990479 
	C345.335266,567.267517 345.873260,561.544556 346.489655,554.987854 
	C343.501068,555.429688 341.769165,555.685791 339.099884,555.839905 
z"/>
<path fill="#4A87BB" opacity="1.000000" stroke="none" 
	d="
M299.074158,648.443970 
	C300.675629,646.979675 302.425079,645.840210 303.511932,645.132324 
	C306.058533,645.874207 307.983429,646.915100 309.913147,646.924072 
	C333.566559,647.034363 357.221466,647.116394 380.874390,646.961426 
	C412.152740,646.756531 443.429169,646.266235 474.707520,646.060791 
	C481.662445,646.015137 488.621338,646.880798 495.579285,646.894775 
	C501.870209,646.907410 508.160065,646.124695 514.454407,646.055115 
	C527.367981,645.912354 540.285461,645.907349 553.198914,646.055664 
	C559.826233,646.131714 566.449890,646.945923 573.072632,646.913879 
	C582.030640,646.870544 590.986511,646.073242 599.942810,646.081360 
	C609.399475,646.089966 618.855835,646.928467 628.311951,646.921265 
	C638.533752,646.913452 648.753784,646.167114 658.977173,646.091614 
	C665.099487,646.046387 671.229126,646.968994 677.351196,646.920410 
	C686.097412,646.850952 694.838196,646.227051 703.585510,646.003357 
	C705.008179,645.966919 706.452393,646.773621 707.964539,647.518433 
	C684.563416,647.929016 661.084351,648.080139 637.605347,648.082703 
	C526.345703,648.094849 415.085999,648.066345 303.826324,648.056641 
	C303.169281,648.056580 302.512207,648.116577 301.604218,648.160767 
	C302.212158,649.652161 302.762939,651.003296 303.161438,652.705322 
	C301.746826,651.627014 300.484467,650.197937 299.074158,648.443970 
z"/>
<path fill="#4A87BB" opacity="1.000000" stroke="none" 
	d="
M362.936249,551.900146 
	C323.663513,551.956726 284.390747,552.007141 245.118027,552.085632 
	C242.808762,552.090271 240.499954,552.322388 237.557709,552.878723 
	C236.341705,555.210022 235.758911,557.111206 235.176102,559.012451 
	C235.404068,555.875183 235.632050,552.737915 236.007599,549.299683 
	C256.256805,549.337830 276.359467,549.626160 296.459625,550.038208 
	C306.000366,550.233765 315.536011,550.910522 325.074402,550.919678 
	C334.191620,550.928345 343.353210,549.693604 352.409760,550.294495 
	C357.473236,550.630432 361.380371,549.661316 365.249512,546.890137 
	C368.769012,544.369446 368.098022,543.533691 365.392578,540.369812 
	C360.556152,534.713806 354.425262,537.259216 349.120483,537.197205 
	C314.383270,536.791138 279.638702,537.045166 244.897842,536.850464 
	C242.749466,536.838501 239.588837,539.920166 238.543457,535.324280 
	C278.078735,535.101624 317.168365,535.207458 356.258026,535.197571 
	C361.157990,535.196289 365.530640,535.891724 368.641144,540.516113 
	C368.881012,541.232727 369.040009,541.635071 369.143066,542.399902 
	C369.130768,543.492798 369.174408,544.223267 369.121063,545.308960 
	C368.822205,546.370117 368.620270,547.075928 368.220032,547.992920 
	C367.042114,549.145142 366.062500,550.086182 364.795410,551.065979 
	C364.326111,551.170593 364.144287,551.236389 363.733459,551.303101 
	C363.180908,551.403015 362.979828,551.617065 362.931091,551.951538 
	C362.960938,551.956909 362.936249,551.900146 362.936249,551.900146 
z"/>
<path fill="#4A87BB" opacity="1.000000" stroke="none" 
	d="
M554.390747,754.008728 
	C558.926392,752.483459 563.867737,750.809998 568.877563,749.375732 
	C593.160461,742.423645 615.960876,732.179138 637.696411,718.863708 
	C636.129211,720.434753 634.189453,721.866699 632.279114,723.336914 
	C620.277771,732.572998 605.954590,737.341309 592.489441,743.697815 
	C586.214966,746.659912 579.203003,748.133057 572.439209,749.962952 
	C566.632385,751.533936 560.703125,752.652222 554.390747,754.008728 
z"/>
<path fill="#4A87BB" opacity="1.000000" stroke="none" 
	d="
M375.943970,723.379028 
	C377.565338,723.586060 379.324280,723.944458 380.782898,724.809326 
	C402.796844,737.862427 426.317932,747.126831 451.572815,753.253906 
	C451.948700,753.493896 451.960999,753.772461 451.960999,753.772461 
	C446.707031,753.028076 441.440704,752.358093 436.208008,751.486023 
	C434.931641,751.273315 433.814087,750.239502 432.541779,749.850830 
	C416.050629,744.813293 400.247711,738.148010 385.185944,729.763000 
	C381.984070,727.980408 379.017059,725.775940 375.943970,723.379028 
z"/>
<path fill="#4A87BB" opacity="1.000000" stroke="none" 
	d="
M482.079376,757.539795 
	C482.572052,757.551331 483.064697,757.562805 484.110168,757.781982 
	C485.102448,757.995056 485.541992,758.000488 485.981506,758.005981 
	C496.244354,758.081543 506.549072,758.770935 516.759155,758.073914 
	C528.948975,757.241760 541.057800,755.222656 553.627930,753.849976 
	C551.257385,754.987732 548.528992,756.546448 545.651917,756.901855 
	C533.671631,758.382080 521.671021,759.968201 509.629883,760.597046 
	C500.611786,761.068115 491.520325,760.135254 482.200562,759.227966 
	C481.986145,758.265564 482.032776,757.902710 482.079376,757.539795 
z"/>
<path fill="#4A87BB" opacity="1.000000" stroke="none" 
	d="
M302.962341,653.347229 
	C305.515747,655.812744 308.117279,658.615601 310.653992,661.476074 
	C319.078491,670.975891 327.486115,680.490723 335.877045,690.020203 
	C336.522369,690.753113 336.986542,691.645386 337.261658,692.757935 
	C332.064178,688.331726 326.804657,683.908142 322.296692,678.818848 
	C316.028076,671.741760 310.300903,664.183105 304.405731,656.779846 
	C303.722931,655.922363 303.445953,654.741821 302.962341,653.347229 
z"/>
<path fill="#6299CF" opacity="1.000000" stroke="none" 
	d="
M235.105804,559.474976 
	C235.758911,557.111206 236.341705,555.210022 237.237000,553.199707 
	C237.661499,560.760437 237.773514,568.430359 237.605789,576.871948 
	C236.601654,580.085632 235.877243,582.527649 235.152863,584.969666 
	C235.113754,576.625610 235.074631,568.281494 235.105804,559.474976 
z"/>
<path fill="#3C71A4" opacity="1.000000" stroke="none" 
	d="
M481.644714,757.380981 
	C482.032776,757.902710 481.986145,758.265564 481.916840,758.902222 
	C473.432892,758.150696 464.961548,757.198303 456.520935,756.024597 
	C455.195496,755.840210 454.009613,754.652161 452.360107,753.850342 
	C451.960999,753.772461 451.948700,753.493896 451.951965,753.354492 
	C461.706848,754.550842 471.458435,755.886536 481.644714,757.380981 
z"/>
<path fill="#4A87BB" opacity="1.000000" stroke="none" 
	d="
M235.107117,514.354980 
	C235.955261,513.640869 236.735657,513.306396 237.829666,512.987549 
	C238.143280,513.003174 238.109238,513.132324 238.058990,513.590149 
	C237.982132,520.702087 237.955505,527.356140 237.928879,534.010254 
	C237.179642,533.766785 236.430420,533.523376 235.407791,533.156860 
	C235.092514,529.312500 235.050659,525.591125 235.311188,521.189819 
	C235.462433,519.353577 235.311295,518.197205 235.160141,517.040894 
	C235.119873,516.272156 235.079620,515.503479 235.107117,514.354980 
z"/>
<path fill="#4A87BB" opacity="1.000000" stroke="none" 
	d="
M708.429260,648.278931 
	C709.277283,647.933838 710.232300,647.975891 711.548706,648.013062 
	C707.512207,653.688721 703.114319,659.369202 698.348999,665.052368 
	C700.426208,661.411926 702.903076,657.789856 705.301819,654.116760 
	C706.455933,652.349487 707.462708,650.485901 708.429260,648.278931 
z"/>
<path fill="#4A87BB" opacity="1.000000" stroke="none" 
	d="
M235.077057,585.390869 
	C235.877243,582.527649 236.601654,580.085632 237.556091,577.340332 
	C237.786102,582.124817 237.786102,587.212708 237.786102,592.434021 
	C240.426712,593.086487 242.547195,593.610474 244.697296,594.491089 
	C235.685654,594.475586 234.974167,593.814575 235.077057,585.390869 
z"/>
<path fill="#4A87BB" opacity="1.000000" stroke="none" 
	d="
M346.050293,701.333740 
	C347.514160,701.855103 349.227173,702.509888 350.623352,703.578613 
	C355.213776,707.092590 359.689362,710.756531 364.111206,714.709229 
	C358.060425,710.589233 352.107422,706.123047 346.050293,701.333740 
z"/>
<path fill="#4A87BB" opacity="1.000000" stroke="none" 
	d="
M638.355286,719.034912 
	C643.106445,715.258362 648.237793,711.461365 653.712036,707.829041 
	C648.948425,711.667297 643.841980,715.340881 638.355286,719.034912 
z"/>
<path fill="#468FD7" opacity="1.000000" stroke="none" 
	d="
M518.940430,256.543213 
	C508.032379,256.962036 496.902649,256.993805 485.294617,256.975220 
	C485.491882,256.584137 486.168060,255.945724 486.842957,255.947052 
	C497.468323,255.968155 508.093506,256.071594 518.940430,256.543213 
z"/>
<path fill="#4A87BB" opacity="1.000000" stroke="none" 
	d="
M688.357788,677.033203 
	C691.118042,672.988098 694.238464,668.922485 697.707275,664.917480 
	C694.943054,668.989624 691.830566,673.001160 688.357788,677.033203 
z"/>
<path fill="#468ACC" opacity="1.000000" stroke="none" 
	d="
M656.966248,704.886841 
	C660.433899,701.940063 663.901550,698.993225 667.715576,696.016785 
	C664.283203,699.652100 660.504456,703.317078 656.340088,706.649780 
	C655.913757,706.153503 655.873108,705.989380 655.832397,705.825195 
	C655.832397,705.825195 655.924927,705.887939 656.130127,705.813599 
	C656.545654,705.455078 656.755920,705.170959 656.966248,704.886841 
z"/>
<path fill="#498BCF" opacity="1.000000" stroke="none" 
	d="
M286.968689,627.028931 
	C284.649597,623.289612 282.319916,619.550110 280.103943,615.331970 
	C280.217651,614.853333 280.488220,614.661438 280.733612,614.866760 
	C282.966064,619.061951 284.953156,623.051880 286.940216,627.041748 
	C286.940216,627.041748 286.958099,627.028809 286.968689,627.028931 
z"/>
<path fill="#4A87BB" opacity="1.000000" stroke="none" 
	d="
M316.681091,344.041565 
	C315.926636,343.746368 315.172180,343.451172 314.137878,343.030029 
	C314.968903,341.320496 316.079773,339.736847 317.842499,338.033813 
	C319.608643,337.559326 320.722961,337.204224 321.837250,336.849091 
	C321.837250,336.849091 321.961548,336.967865 321.876312,337.324982 
	C320.087738,339.801910 318.384399,341.921722 316.681091,344.041565 
z"/>
<path fill="#4A87BB" opacity="1.000000" stroke="none" 
	d="
M674.349976,691.025024 
	C676.451416,688.301819 678.905090,685.548340 681.706421,682.887939 
	C679.603455,685.652283 677.152893,688.323486 674.349976,691.025024 
z"/>
<path fill="#4A87BB" opacity="1.000000" stroke="none" 
	d="
M336.948303,693.380798 
	C339.765350,695.140869 342.578918,697.271362 345.196167,699.727417 
	C342.314850,697.952393 339.629852,695.851807 336.948303,693.380798 
z"/>
<path fill="#498BCF" opacity="1.000000" stroke="none" 
	d="
M728.966064,612.991638 
	C729.238342,613.197266 729.510620,613.402832 729.907776,613.834839 
	C728.760925,616.433838 727.489197,618.806396 725.954407,621.386597 
	C725.526306,621.459351 725.361206,621.324463 725.031189,620.636108 
	C726.232910,617.719055 727.599487,615.355347 728.966064,612.991638 
z"/>
<path fill="#4A87BB" opacity="1.000000" stroke="none" 
	d="
M363.945007,715.369263 
	C366.001251,716.108215 368.057251,717.225037 370.068542,718.698303 
	C367.997467,717.952209 365.971100,716.849731 363.945007,715.369263 
z"/>
<path fill="#4A87BB" opacity="1.000000" stroke="none" 
	d="
M369.972900,719.346497 
	C372.024017,720.105469 374.103851,721.225708 376.100861,722.701416 
	C374.012543,721.940613 372.007080,720.824158 369.972900,719.346497 
z"/>
<path fill="#4A87BB" opacity="1.000000" stroke="none" 
	d="
M682.333557,683.014038 
	C682.768494,681.981506 683.557922,680.906860 684.701660,679.905762 
	C684.266663,680.976868 683.477295,681.974365 682.333557,683.014038 
z"/>
<path fill="#4A87BB" opacity="1.000000" stroke="none" 
	d="
M685.340088,680.030884 
	C685.777405,678.918457 686.572754,677.781860 687.711548,676.819580 
	C687.269348,677.998230 686.483704,679.002441 685.340088,680.030884 
z"/>
<path fill="#4B8FCF" opacity="1.000000" stroke="none" 
	d="
M321.849518,336.543732 
	C320.722961,337.204224 319.608643,337.559326 318.143250,337.889709 
	C318.605042,336.960327 319.417938,336.055725 320.504120,335.010803 
	C321.138855,335.326416 321.500336,335.782410 321.849518,336.543732 
z"/>
<path fill="#498BCF" opacity="1.000000" stroke="none" 
	d="
M277.124939,612.341919 
	C277.604156,611.999084 278.024384,611.998962 278.958130,612.239380 
	C279.810486,613.207031 280.149353,613.934265 280.488220,614.661438 
	C280.488220,614.661438 280.217651,614.853333 280.083191,614.950439 
	C278.987793,614.259888 278.026917,613.472290 277.124939,612.341919 
z"/>
<path fill="#4B8FCF" opacity="1.000000" stroke="none" 
	d="
M368.556641,296.901184 
	C368.093628,297.516235 367.321198,298.222198 366.206726,298.941650 
	C366.658813,298.300812 367.453003,297.646423 368.556641,296.901184 
z"/>
<path fill="#468FD7" opacity="1.000000" stroke="none" 
	d="
M235.088425,517.428101 
	C235.311295,518.197205 235.462433,519.353577 235.386551,520.730896 
	C235.111908,519.906372 235.064316,518.860901 235.088425,517.428101 
z"/>
<path fill="#4B8FCF" opacity="1.000000" stroke="none" 
	d="
M352.549683,307.880249 
	C352.398621,308.186432 351.936340,308.562012 351.152924,308.925842 
	C351.300690,308.592560 351.769592,308.271088 352.549683,307.880249 
z"/>
<path fill="#4A87BB" opacity="1.000000" stroke="none" 
	d="
M672.344177,691.942871 
	C672.524170,691.472961 673.024231,690.990845 673.789307,690.759216 
	C673.590881,691.316711 673.127563,691.623657 672.344177,691.942871 
z"/>
<path fill="#4B8FCF" opacity="1.000000" stroke="none" 
	d="
M288.682007,379.960815 
	C288.831696,380.269867 288.629242,380.517151 288.091644,380.727600 
	C288.045776,380.507324 288.236938,380.243439 288.682007,379.960815 
z"/>
<path fill="#4A87BB" opacity="1.000000" stroke="none" 
	d="
M654.263306,707.998657 
	C654.106018,707.671814 654.227234,707.285034 654.702881,706.937012 
	C654.885498,707.296753 654.713684,707.617737 654.263306,707.998657 
z"/>
<path fill="#4A87BB" opacity="1.000000" stroke="none" 
	d="
M655.547241,705.920654 
	C655.873108,705.989380 655.913757,706.153503 655.985718,706.569275 
	C655.847961,706.877197 655.678833,706.933472 655.244385,707.023071 
	C655.073486,706.709656 655.167786,706.362915 655.547241,705.920654 
z"/>
<path fill="#4A87BB" opacity="1.000000" stroke="none" 
	d="
M345.000549,700.264771 
	C345.398468,700.093872 345.855042,700.198059 346.158569,700.680054 
	C345.690094,700.885193 345.374634,700.712524 345.000549,700.264771 
z"/>
<path fill="#F2F6F7" opacity="1.000000" stroke="none" 
	d="
M409.520538,711.224121 
	C408.407074,709.835693 407.548828,708.732361 406.228577,707.035217 
	C412.613586,707.035217 418.195587,707.029602 423.777618,707.036194 
	C442.753632,707.058655 461.730133,707.151306 480.704742,707.000183 
	C482.438782,706.986389 484.635254,705.839111 485.805206,704.505859 
	C490.714630,698.911255 499.842102,696.420105 506.718811,699.186462 
	C513.215576,701.799988 518.559204,710.352112 517.943787,717.151245 
	C517.204834,725.315247 511.964447,731.610352 504.587646,733.195740 
	C496.483795,734.937378 488.825623,731.628601 485.012268,723.981506 
	C483.156555,720.260071 480.833679,719.308289 476.936859,719.365540 
	C460.463928,719.607727 443.978394,719.256836 427.514282,719.720520 
	C419.913788,719.934509 414.009491,717.885071 409.520538,711.224121 
z"/>
<path fill="#3C71A4" opacity="1.000000" stroke="none" 
	d="
M368.958221,681.097595 
	C365.458496,679.053406 364.230927,675.890930 365.403961,672.195496 
	C366.600372,668.426392 369.838409,667.825562 373.466217,667.831116 
	C410.420563,667.887451 447.375061,667.839478 484.329498,667.860962 
	C491.958862,667.865356 495.290405,671.786194 493.346008,678.470642 
	C492.856750,672.701965 490.181488,669.938965 484.478271,670.032654 
	C469.551575,670.277954 454.627258,670.671753 439.702789,671.039001 
	C438.970001,671.057068 438.244873,671.385559 436.082214,671.931580 
	C444.814026,676.902710 453.561432,673.705627 461.280273,676.162598 
	C450.029022,677.493164 438.847870,678.788574 427.657318,678.875305 
	C410.075714,679.011597 392.487213,678.357483 374.903046,677.973938 
	C372.252167,677.916199 369.862366,677.997803 368.958221,681.097595 
z"/>
<path fill="#4C8CCD" opacity="1.000000" stroke="none" 
	d="
M525.333069,680.396729 
	C524.775818,671.146729 530.202942,663.854736 537.882812,662.994446 
	C546.423767,662.037720 554.203857,667.907837 555.543762,676.319763 
	C556.719238,683.700012 551.520203,691.488647 544.423340,692.978943 
	C534.845947,694.990173 528.083984,690.646362 525.333069,680.396729 
z"/>
<path fill="#4C8CCD" opacity="1.000000" stroke="none" 
	d="
M593.220459,663.278198 
	C600.673828,666.141907 605.600464,670.591003 605.363770,678.815125 
	C605.097656,688.061462 598.908203,693.476257 589.277283,693.110168 
	C580.987549,692.795105 574.737976,685.847778 574.907959,677.136536 
	C575.064636,669.107483 581.933716,662.788635 590.346924,662.952026 
	C591.175110,662.968140 592.001343,663.087402 593.220459,663.278198 
z"/>
<path fill="#4C8CCD" opacity="1.000000" stroke="none" 
	d="
M625.698181,664.261292 
	C631.963989,661.892456 637.477539,662.364990 642.324646,666.665771 
	C647.197510,670.989380 648.140198,676.554688 646.816772,682.593811 
	C645.643494,687.948059 640.417725,692.345215 634.820190,693.064636 
	C627.906982,693.953186 622.700806,691.555359 619.610596,686.059265 
	C616.275757,680.128052 616.729492,673.378967 620.956421,668.455872 
	C622.241455,666.959167 623.867432,665.755127 625.698181,664.261292 
z"/>
<path fill="#3874B0" opacity="1.000000" stroke="none" 
	d="
M369.100952,681.363403 
	C369.862366,677.997803 372.252167,677.916199 374.903046,677.973938 
	C392.487213,678.357483 410.075714,679.011597 427.657318,678.875305 
	C438.847870,678.788574 450.029022,677.493164 461.280273,676.162598 
	C453.561432,673.705627 444.814026,676.902710 436.082214,671.931580 
	C438.244873,671.385559 438.970001,671.057068 439.702789,671.039001 
	C454.627258,670.671753 469.551575,670.277954 484.478271,670.032654 
	C490.181488,669.938965 492.856750,672.701965 493.037689,678.741455 
	C492.591309,679.740540 492.126495,680.310547 490.944214,680.945679 
	C480.475555,681.007751 470.724396,681.002502 460.973206,681.001953 
	C432.644775,681.000305 404.316315,680.979370 375.988068,681.052856 
	C374.291687,681.057251 372.597260,681.822449 370.901917,682.233643 
	C370.349182,682.032104 369.796417,681.830627 369.100952,681.363403 
z"/>
<path fill="#3C71A4" opacity="1.000000" stroke="none" 
	d="
M371.241150,682.483337 
	C372.597260,681.822449 374.291687,681.057251 375.988068,681.052856 
	C404.316315,680.979370 432.644775,681.000305 460.973206,681.001953 
	C470.724396,681.002502 480.475555,681.007751 490.676849,681.030396 
	C488.882568,681.935974 486.637726,683.594177 484.393890,683.592773 
	C448.441681,683.569824 412.489532,683.340332 376.537537,683.132141 
	C374.884430,683.122559 373.232727,682.871582 371.241150,682.483337 
z"/>
<path fill="#3C71A4" opacity="1.000000" stroke="none" 
	d="
M485.788330,757.860962 
	C485.541992,758.000488 485.102448,757.995056 484.459473,757.911499 
	C484.702393,757.794312 485.148743,757.755127 485.788330,757.860962 
z"/>
<path fill="#4A87BB" opacity="1.000000" stroke="none" 
	d="
M656.706909,704.972290 
	C656.755920,705.170959 656.545654,705.455078 656.074463,705.817871 
	C656.024841,705.617004 656.236206,705.337402 656.706909,704.972290 
z"/>
<path fill="#040813" opacity="1.000000" stroke="none" 
	d="
M363.962463,551.302185 
	C364.144287,551.236389 364.326111,551.170593 365.171997,551.061279 
	C367.645691,550.696350 370.774414,551.427429 368.418335,547.781799 
	C368.620270,547.075928 368.822205,546.370117 369.321411,545.109497 
	C369.478821,543.715698 369.338928,542.876526 369.198975,542.037415 
	C369.040009,541.635071 368.881012,541.232727 368.938599,540.342651 
	C368.845520,535.375732 365.906219,533.502930 361.951416,533.053894 
	C358.162476,532.623596 354.325775,532.614380 352.021973,532.497070 
	C351.499084,529.751831 351.036041,527.713623 350.746704,525.651062 
	C350.578400,524.451355 350.160828,522.647461 350.761963,522.085999 
	C353.936401,519.120972 352.962952,516.222229 351.414429,513.159180 
	C351.750214,513.297302 351.826904,513.452454 352.338135,513.730225 
	C355.838776,513.626953 358.904968,513.401123 362.285767,513.080322 
	C363.032379,512.916870 363.464386,512.848389 364.067078,513.029541 
	C364.791870,512.803833 365.346008,512.328369 365.912292,511.865143 
	C365.924500,511.877350 365.883881,511.851166 366.257751,511.889618 
	C367.820770,511.443512 369.121582,511.131287 370.180298,510.445404 
	C375.600708,506.933716 375.709015,504.782776 370.951660,500.669373 
	C370.267029,500.077454 370.170288,498.836334 369.522369,498.165039 
	C368.033051,496.621948 366.535919,494.279633 364.750275,493.975769 
	C358.617096,492.932159 352.358429,492.625885 346.120361,491.568115 
	C346.093109,476.826294 346.093109,462.554993 346.093109,447.937012 
	C362.812653,447.937012 379.204620,447.937012 395.745056,447.937012 
	C395.745056,438.021057 395.745056,428.456757 395.745056,419.090210 
	C351.760284,419.090210 308.073608,419.090210 264.358093,419.090210 
	C264.358093,428.852081 264.358093,438.248383 264.358093,448.226135 
	C281.451355,448.226135 298.236511,448.226135 315.139496,448.400574 
	C315.456024,448.785339 315.695831,448.925171 316.111603,449.488220 
	C315.857422,451.169220 315.468414,452.356445 315.024109,453.763428 
	C315.193573,454.970703 315.418304,455.958191 316.004883,457.235718 
	C316.300812,459.346832 316.234924,461.167877 315.962769,463.068420 
	C315.923584,463.770874 316.090698,464.393799 316.455872,465.444672 
	C316.616638,472.243256 316.579407,478.613892 316.147644,484.985840 
	C313.998291,485.132660 312.243408,485.278198 309.261230,485.525513 
	C312.651642,487.127106 314.641754,488.067200 316.736694,489.334229 
	C316.773926,490.108093 316.706329,490.555023 316.259827,491.073730 
	C312.455963,491.640289 309.030090,492.562744 305.606232,492.555176 
	C291.476379,492.523956 277.347443,492.129913 263.217407,492.075897 
	C260.680328,492.066193 258.158295,493.296478 255.595581,493.477753 
	C252.608551,493.688965 249.584473,493.376709 246.576477,493.291595 
	C246.561142,492.710754 246.545807,492.129913 246.530457,491.549072 
	C249.298431,489.932434 254.199387,492.801575 255.846268,486.902100 
	C250.431442,486.902100 245.476654,486.902100 239.353622,486.902100 
	C244.183640,480.186523 250.822968,484.945129 255.283005,481.587280 
	C251.363876,480.996368 247.465439,481.232086 243.624939,480.863678 
	C242.345886,480.741028 240.307144,479.183472 240.170471,478.087921 
	C239.495148,472.674408 239.132553,467.199097 239.048111,461.739563 
	C238.891006,451.583466 239.003082,441.423187 239.003052,431.264648 
	C239.003036,424.849945 239.096741,418.433563 238.982666,412.020905 
	C238.768814,399.998871 238.718765,399.999481 250.731628,399.998169 
	C259.890961,399.997162 269.052673,400.124725 278.208954,399.957367 
	C285.999451,399.814941 293.783173,399.161133 301.571289,399.134064 
	C303.311615,399.128021 306.668091,401.272919 306.564758,401.620575 
	C304.227142,409.487701 309.870819,407.961792 313.927063,407.923615 
	C315.778870,407.906128 318.965515,407.439850 319.190704,406.568298 
	C319.656006,404.767639 318.541687,402.558868 318.004456,400.198822 
	C318.449707,399.983307 319.324066,399.190857 320.195129,399.194458 
	C331.161926,399.239594 342.131042,399.288208 353.093658,399.568115 
	C360.857971,399.766296 368.614258,400.628815 376.372223,400.603638 
	C381.797119,400.586029 387.216400,399.130310 392.642517,399.100311 
	C401.188873,399.053101 409.736694,399.857300 418.287811,399.954041 
	C432.441345,400.114197 446.599182,400.087280 460.752106,399.902100 
	C462.862518,399.874481 464.956024,398.556091 467.057373,397.834839 
	C468.414856,397.776489 469.772369,397.718170 471.814575,398.058899 
	C472.647156,398.533630 472.793549,398.672394 472.943176,398.675995 
	C490.875793,399.108948 508.808197,399.557678 526.742981,399.865143 
	C527.492615,399.877991 528.264954,398.568512 529.026672,397.875122 
	C531.386719,397.824097 533.746704,397.773102 536.638306,398.205841 
	C541.406921,399.054810 545.641296,399.469269 549.885803,399.694733 
	C550.237732,399.713501 550.657593,398.453735 551.045959,397.787994 
	C551.482971,397.703064 551.920044,397.618134 552.872192,397.943512 
	C558.591187,398.155182 563.795166,397.956543 568.999084,397.757935 
	C570.720398,397.676361 572.441650,397.594818 574.706543,397.969543 
	C576.058533,398.935699 576.868469,399.886444 577.675232,399.883728 
	C582.802368,399.866486 587.927979,399.540100 593.055542,399.501007 
	C603.646973,399.420258 614.239746,399.392487 624.831177,399.461334 
	C635.103210,399.528076 645.374512,399.827026 655.645508,399.799072 
	C657.117981,399.795074 658.586975,398.527100 660.057617,397.844055 
	C660.781494,397.786133 661.505432,397.728241 662.820679,398.075470 
	C669.441650,398.874603 675.466248,399.418427 681.502319,399.618896 
	C687.103027,399.804871 692.716248,399.653931 698.323425,399.596527 
	C703.939697,399.539062 709.832825,401.966125 715.005066,397.790894 
	C716.074646,397.700500 717.144226,397.610077 718.731812,397.972412 
	C721.058105,398.949524 722.873352,399.948761 724.673462,399.922089 
	C737.446106,399.732971 750.221924,399.478363 762.983032,398.926697 
	C767.743164,398.720917 769.181885,400.758911 769.037476,405.096832 
	C768.873291,410.031189 768.784973,414.986877 769.048706,419.912689 
	C769.552490,429.323425 770.855652,438.720032 770.846741,448.121582 
	C770.837524,457.842651 769.323425,467.554962 769.105530,477.285370 
	C768.924072,485.386139 769.918030,493.507294 769.927002,501.619934 
	C769.935425,509.232574 769.120422,516.843872 769.047607,524.459412 
	C768.898071,540.096985 768.979187,555.736938 769.037781,571.375732 
	C769.043823,572.985657 769.258057,574.708740 769.857910,576.183044 
	C772.596130,582.913391 770.339294,589.577881 764.016418,592.916199 
	C763.254456,592.966187 762.492432,593.016174 761.081482,592.738220 
	C758.294983,592.576477 756.157410,592.742615 754.019897,592.908813 
	C745.321594,593.026306 736.623291,593.143799 727.410889,592.835449 
	C725.410889,590.379028 724.505981,590.865601 723.999512,593.078369 
	C707.308411,593.112549 690.617249,593.146729 673.463257,592.635498 
	C672.997009,588.757629 673.381348,585.358032 672.820496,582.122192 
	C672.555237,580.591553 670.530823,578.256104 669.218384,578.197754 
	C661.070068,577.835510 652.893250,577.883545 644.737915,578.155823 
	C643.475037,578.197998 641.442688,579.927734 641.198364,581.160828 
	C640.430847,585.034668 640.346497,589.043884 639.997559,593.000671 
	C625.529602,593.057556 611.061646,593.162231 596.593689,593.162903 
	C536.705139,593.165710 476.816589,593.137146 416.463745,592.638916 
	C415.834717,589.641357 415.741699,586.916443 412.218811,587.079529 
	C408.521912,587.250854 407.847290,589.888184 407.997192,592.973145 
	C404.645050,593.071045 401.292908,593.168945 397.196960,592.877136 
	C391.289062,592.687866 386.125031,592.888245 380.960968,593.088623 
	C346.435120,593.138733 311.909241,593.188721 277.383392,593.239014 
	C269.913177,593.249939 262.442993,593.262146 254.514114,593.191223 
	C251.676071,592.737000 249.308029,592.242126 246.914719,592.021973 
	C243.167313,591.677185 241.656830,590.063538 242.349243,586.094727 
	C242.751236,583.790588 243.002396,580.602173 241.769928,579.021240 
	C236.798950,572.645020 239.500885,565.595276 239.448074,558.861328 
	C239.438034,557.580017 242.096649,555.340271 243.719635,555.141663 
	C251.915771,554.138733 260.167297,553.300781 268.416901,553.089478 
	C281.018036,552.766724 293.633545,553.004883 307.600555,553.004883 
	C302.748474,559.411865 296.311554,555.458374 290.911896,557.999512 
	C296.566986,559.037720 301.409729,560.056152 306.302612,560.683533 
	C307.024597,560.776062 308.522156,559.128723 308.737366,558.094238 
	C309.531525,554.276733 311.955994,553.519226 313.849121,553.759644 
	C314.317383,560.311890 314.241943,566.656433 315.408600,572.763672 
	C316.091766,576.339905 324.880341,578.725037 327.504120,576.187012 
	C331.350677,572.466125 336.049988,573.304871 339.626373,574.494202 
	C344.527771,576.124023 347.634888,573.401123 352.463196,572.712280 
	C349.204590,569.277954 346.407867,566.785278 350.167206,562.505554 
	C351.162354,561.372681 348.766632,557.261169 347.522919,553.192566 
	C351.190277,553.367065 354.819427,553.539795 358.915558,553.734741 
	C358.101044,556.174194 357.612274,557.637939 357.030090,559.381592 
	C361.027740,559.167236 364.595642,558.975952 368.163574,558.784668 
	C368.417084,558.356628 368.670593,557.928650 368.924103,557.500610 
	C367.621033,556.669373 366.255157,555.919556 365.036072,554.979431 
	C364.164673,554.307373 363.490143,553.379883 362.832031,552.233276 
	C362.936249,551.900146 362.960938,551.956909 363.140869,551.904907 
	C363.594788,551.739380 363.808655,551.555786 363.962463,551.302185 
M721.812012,531.785767 
	C721.812012,531.785767 721.824219,531.643860 721.094238,531.681274 
	C715.710388,533.723694 713.151367,537.082520 713.655945,543.358337 
	C714.343445,551.909729 713.900208,560.549255 714.051758,569.149048 
	C714.078735,570.678162 714.640991,572.197876 714.867798,574.018677 
	C714.867798,574.018677 714.933105,574.321350 715.018127,575.032471 
	C715.637939,575.663391 716.376526,576.919373 716.859192,576.827698 
	C721.277405,575.988708 725.651306,574.915649 730.858398,573.869934 
	C732.226868,573.881836 733.595337,573.893677 735.394836,574.488220 
	C738.749023,577.076721 742.001404,576.229248 743.437927,572.802917 
	C744.546448,570.158997 747.910828,566.103149 742.094788,563.162842 
	C742.125183,561.778198 742.155579,560.393616 742.721863,558.901733 
	C742.542175,558.264832 742.362488,557.627930 742.094360,556.246826 
	C742.120605,555.499268 742.146790,554.751709 742.902893,553.773499 
	C743.224487,547.976746 743.586731,542.181396 743.786560,536.380432 
	C743.801758,535.940125 742.663574,535.460083 742.004456,534.143799 
	C742.014587,532.430725 742.024719,530.717590 742.739868,528.905762 
	C746.747681,525.273682 746.615295,522.000977 741.612915,519.798401 
	C736.060974,523.043884 730.509033,526.289429 724.392578,529.683105 
	C723.492126,530.358826 722.591675,531.034607 721.812012,531.785767 
M569.943726,498.963379 
	C569.975830,522.281311 569.982788,545.599304 570.102051,568.916809 
	C570.109253,570.320923 571.011414,571.720520 572.390076,573.602051 
	C580.783569,573.602051 589.177124,573.602051 598.033569,573.602051 
	C598.033569,571.040955 598.035645,568.908447 598.033264,566.775879 
	C598.014893,550.494324 597.242615,534.165466 598.260925,517.949036 
	C598.865295,508.325134 595.389587,503.076172 586.580261,499.442627 
	C581.039795,496.336212 575.499390,493.229797 568.925842,489.544159 
	C569.382690,493.241150 569.678589,495.636139 569.943726,498.963379 
M726.901611,517.400879 
	C730.872986,514.970520 734.739441,512.340332 738.853027,510.180756 
	C741.543396,508.768280 742.558899,507.112701 742.543518,504.003693 
	C742.422302,479.516510 742.500244,455.028351 742.515930,430.540497 
	C742.518433,426.623810 742.516296,422.707153 742.516296,418.782867 
	C732.592102,418.782867 723.566040,419.387390 714.664978,418.592499 
	C707.480408,417.950897 703.680359,420.904785 700.029480,426.549103 
	C685.740417,448.640411 671.047852,470.470612 656.353271,492.626953 
	C654.207764,489.754486 652.104614,487.173859 650.254211,484.423187 
	C638.181152,466.476349 625.608704,448.830597 614.359436,430.379211 
	C608.688782,421.078064 602.374939,416.962494 591.441833,418.574402 
	C584.199951,419.642059 576.673096,418.776733 569.159180,418.776733 
	C569.159180,434.030701 570.076294,448.749390 568.864746,463.290680 
	C567.920593,474.622253 571.527832,481.601410 581.541565,486.396729 
	C587.235229,489.123199 592.345398,493.068146 598.348938,496.862976 
	C598.348938,483.484833 598.348938,471.093567 598.348938,457.468994 
	C618.023438,486.293274 637.035583,514.147156 656.243225,542.287537 
	C675.340515,513.784180 693.906982,486.073059 712.473450,458.361908 
	C712.967957,458.574829 713.462402,458.787750 713.956909,459.000671 
	C713.956909,480.984985 713.956909,502.969330 713.956909,525.828918 
	C718.598389,522.828491 722.459534,520.332458 726.901611,517.400879 
M440.860504,479.479858 
	C450.714569,444.134064 498.271820,432.058533 527.644226,460.575623 
	C534.640930,454.212250 541.640198,447.846588 548.638062,441.482147 
	C529.953796,419.975037 497.059570,407.996857 461.516815,419.955200 
	C429.711884,430.655945 407.468201,461.285065 407.363617,494.898926 
	C407.257996,528.846375 430.192291,561.786987 461.444763,571.916077 
	C494.722137,582.701538 530.575989,573.296753 550.110657,551.444580 
	C542.040833,545.073853 533.977722,538.708374 525.972473,532.388611 
	C508.790222,549.239563 483.233002,552.284729 463.044373,540.220825 
	C443.216187,528.372314 433.796997,503.141296 440.860504,479.479858 
M262.302368,485.817902 
	C264.634094,485.817902 266.965851,485.817902 269.297577,485.817902 
	C269.215454,485.133667 269.133331,484.449463 269.051208,483.765228 
	C266.600250,484.297699 264.149292,484.830139 262.302368,485.817902 
M300.516876,483.175812 
	C299.466949,483.678955 298.416992,484.182129 297.367065,484.685272 
	C297.839844,485.191986 298.312622,485.698730 298.785431,486.205444 
	C299.588135,485.265381 300.390869,484.325317 300.516876,483.175812 
M730.559937,403.617615 
	C731.210205,404.254761 731.860474,404.891876 732.510742,405.529022 
	C732.850159,405.027466 733.189575,404.525909 733.528992,404.024323 
	C732.704895,403.756744 731.880798,403.489136 730.559937,403.617615 
z"/>
<path fill="#040C1C" opacity="1.000000" stroke="none" 
	d="
M346.147614,492.038605 
	C352.358429,492.625885 358.617096,492.932159 364.750275,493.975769 
	C366.535919,494.279633 368.033051,496.621948 369.522369,498.165039 
	C370.170288,498.836334 370.267029,500.077454 370.951660,500.669373 
	C375.709015,504.782776 375.600708,506.933716 370.180298,510.445404 
	C369.121582,511.131287 367.820770,511.443512 366.418671,511.589417 
	C367.175934,509.508148 368.146149,507.765533 369.116364,506.022919 
	C369.794006,500.079071 367.084351,496.606354 361.024445,496.117432 
	C357.380127,495.823364 353.698151,495.963654 350.033112,495.962616 
	C314.544983,495.952576 279.056824,495.953979 243.568695,495.952087 
	C241.943802,495.951996 240.318893,495.952087 238.252045,495.952087 
	C238.252045,462.909698 238.252045,430.373688 238.252045,397.573303 
	C239.789062,397.498657 241.088303,397.380310 242.387558,397.380341 
	C316.362671,397.380981 390.337769,397.391174 464.312897,397.405670 
	C464.977509,397.405823 465.642090,397.476562 466.682037,397.674622 
	C464.956024,398.556091 462.862518,399.874481 460.752106,399.902100 
	C446.599182,400.087280 432.441345,400.114197 418.287811,399.954041 
	C409.736694,399.857300 401.188873,399.053101 392.642517,399.100311 
	C387.216400,399.130310 381.797119,400.586029 376.372223,400.603638 
	C368.614258,400.628815 360.857971,399.766296 353.093658,399.568115 
	C342.131042,399.288208 331.161926,399.239594 320.195129,399.194458 
	C319.324066,399.190857 318.449707,399.983307 318.004456,400.198822 
	C318.541687,402.558868 319.656006,404.767639 319.190704,406.568298 
	C318.965515,407.439850 315.778870,407.906128 313.927063,407.923615 
	C309.870819,407.961792 304.227142,409.487701 306.564758,401.620575 
	C306.668091,401.272919 303.311615,399.128021 301.571289,399.134064 
	C293.783173,399.161133 285.999451,399.814941 278.208954,399.957367 
	C269.052673,400.124725 259.890961,399.997162 250.731628,399.998169 
	C238.718765,399.999481 238.768814,399.998871 238.982666,412.020905 
	C239.096741,418.433563 239.003036,424.849945 239.003052,431.264648 
	C239.003082,441.423187 238.891006,451.583466 239.048111,461.739563 
	C239.132553,467.199097 239.495148,472.674408 240.170471,478.087921 
	C240.307144,479.183472 242.345886,480.741028 243.624939,480.863678 
	C247.465439,481.232086 251.363876,480.996368 255.283005,481.587280 
	C250.822968,484.945129 244.183640,480.186523 239.353622,486.902100 
	C245.476654,486.902100 250.431442,486.902100 255.846268,486.902100 
	C254.199387,492.801575 249.298431,489.932434 246.530457,491.549072 
	C246.545807,492.129913 246.561142,492.710754 246.576477,493.291595 
	C249.584473,493.376709 252.608551,493.688965 255.595581,493.477753 
	C258.158295,493.296478 260.680328,492.066193 263.217407,492.075897 
	C277.347443,492.129913 291.476379,492.523956 305.606232,492.555176 
	C309.030090,492.562744 312.455963,491.640289 316.524139,491.447266 
	C326.827454,491.845581 336.487518,491.942108 346.147614,492.038605 
M240.487000,492.569183 
	C240.487000,492.569183 240.436493,492.477386 240.487000,492.569183 
z"/>
<path fill="#040C1C" opacity="1.000000" stroke="none" 
	d="
M764.445190,592.998779 
	C770.339294,589.577881 772.596130,582.913391 769.857910,576.183044 
	C769.258057,574.708740 769.043823,572.985657 769.037781,571.375732 
	C768.979187,555.736938 768.898071,540.096985 769.047607,524.459412 
	C769.120422,516.843872 769.935425,509.232574 769.927002,501.619934 
	C769.918030,493.507294 768.924072,485.386139 769.105530,477.285370 
	C769.323425,467.554962 770.837524,457.842651 770.846741,448.121582 
	C770.855652,438.720032 769.552490,429.323425 769.048706,419.912689 
	C768.784973,414.986877 768.873291,410.031189 769.037476,405.096832 
	C769.181885,400.758911 767.743164,398.720917 762.983032,398.926697 
	C750.221924,399.478363 737.446106,399.732971 724.673462,399.922089 
	C722.873352,399.948761 721.058105,398.949524 719.116394,398.109009 
	C736.047791,397.642456 753.112610,397.483032 770.177795,397.383301 
	C770.711365,397.380188 771.248657,397.993958 771.882751,399.144104 
	C771.936890,464.000000 771.892517,528.031982 771.848145,592.063965 
	C771.848145,592.063965 771.656250,592.266724 771.691772,592.401489 
	C769.442810,592.718018 767.158325,592.899719 764.445190,592.998779 
z"/>
<path fill="#040C1C" opacity="1.000000" stroke="none" 
	d="
M659.682251,397.683594 
	C658.586975,398.527100 657.117981,399.795074 655.645508,399.799072 
	C645.374512,399.827026 635.103210,399.528076 624.831177,399.461334 
	C614.239746,399.392487 603.646973,399.420258 593.055542,399.501007 
	C587.927979,399.540100 582.802368,399.866486 577.675232,399.883728 
	C576.868469,399.886444 576.058533,398.935699 575.116943,398.109680 
	C588.613281,397.630615 602.242310,397.371826 615.872070,397.330841 
	C630.350098,397.287292 644.828613,397.450348 659.682251,397.683594 
z"/>
<path fill="#6299CF" opacity="1.000000" stroke="none" 
	d="
M772.165283,591.776672 
	C771.892517,528.031982 771.936890,464.000000 772.049194,399.506958 
	C772.413208,400.629669 772.967163,402.213257 772.968262,403.797241 
	C773.011230,464.894775 773.007263,525.992371 772.980896,587.089905 
	C772.980225,588.556458 772.655823,590.022888 772.165283,591.776672 
z"/>
<path fill="#6299CF" opacity="1.000000" stroke="none" 
	d="
M368.824707,506.129242 
	C368.146149,507.765533 367.175934,509.508148 366.044800,511.550964 
	C365.883881,511.851166 365.924500,511.877350 365.624573,511.892578 
	C364.848541,512.198486 364.372467,512.489197 363.896393,512.779907 
	C363.464386,512.848389 363.032379,512.916870 361.845886,513.010010 
	C358.028839,513.225708 354.966217,513.416687 351.903625,513.607666 
	C351.826904,513.452454 351.750214,513.297302 351.201202,513.082031 
	C350.408234,512.973083 350.108337,513.031433 349.551331,513.132996 
	C348.898895,513.115967 348.524261,513.162842 347.744354,513.115784 
	C310.929108,513.058716 274.519165,513.095520 238.109238,513.132324 
	C238.109238,513.132324 238.143280,513.003174 238.145447,512.935669 
	C240.057541,512.577759 241.967133,512.036621 243.877396,512.034180 
	C281.577789,511.985992 319.278259,512.006348 356.978729,511.983459 
	C358.781708,511.982361 360.584534,511.711670 362.687195,511.277313 
	C363.557098,510.485260 364.127258,509.982391 365.068787,509.126587 
	C365.703369,508.574463 365.890778,508.319580 366.002441,508.008972 
	C366.845978,507.417847 367.689514,506.826691 368.824707,506.129242 
z"/>
<path fill="#040C1C" opacity="1.000000" stroke="none" 
	d="
M528.661865,397.697327 
	C528.264954,398.568512 527.492615,399.877991 526.742981,399.865143 
	C508.808197,399.557678 490.875793,399.108948 472.943176,398.675995 
	C472.793549,398.672394 472.647156,398.533630 472.214569,398.145935 
	C476.403320,397.682007 480.876617,397.405823 485.350220,397.401245 
	C499.665802,397.386536 513.981506,397.472473 528.661865,397.697327 
z"/>
<path fill="#040C1C" opacity="1.000000" stroke="none" 
	d="
M714.560669,397.635040 
	C709.832825,401.966125 703.939697,399.539062 698.323425,399.596527 
	C692.716248,399.653931 687.103027,399.804871 681.502319,399.618896 
	C675.466248,399.418427 669.441650,398.874603 663.175903,398.161682 
	C673.199402,397.701599 683.458618,397.519287 693.718750,397.433807 
	C700.517334,397.377167 707.317017,397.459198 714.560669,397.635040 
z"/>
<path fill="#040C1C" opacity="1.000000" stroke="none" 
	d="
M550.603149,397.636108 
	C550.657593,398.453735 550.237732,399.713501 549.885803,399.694733 
	C545.641296,399.469269 541.406921,399.054810 537.073486,398.291199 
	C541.371521,397.756592 545.765930,397.620392 550.603149,397.636108 
z"/>
<path fill="#040C1C" opacity="1.000000" stroke="none" 
	d="
M568.561035,397.587189 
	C563.795166,397.956543 558.591187,398.155182 553.194214,398.050232 
	C558.041809,397.636597 563.082336,397.526550 568.561035,397.587189 
z"/>
<path fill="#468FD7" opacity="1.000000" stroke="none" 
	d="
M365.845184,507.797028 
	C365.890778,508.319580 365.703369,508.574463 365.228821,508.886658 
	C364.849579,508.524567 364.681763,508.049469 364.513947,507.574402 
	C364.905273,507.577942 365.296600,507.581512 365.845184,507.797028 
z"/>
<path fill="#4A87BB" opacity="1.000000" stroke="none" 
	d="
M719.000000,380.999603 
	C719.107300,381.125031 719.214600,381.250824 719.321899,381.376617 
	C719.249695,381.331390 719.177490,381.286194 719.052612,381.121094 
	C719.000000,381.001221 719.000000,381.000000 719.000000,380.999603 
z"/>
<path fill="#030C1C" opacity="1.000000" stroke="none" 
	d="
M280.733612,614.866760 
	C280.149353,613.934265 279.810486,613.207031 279.273315,612.239075 
	C279.148834,611.654663 279.341492,611.401367 280.319885,611.166626 
	C388.314880,611.103516 495.642975,611.137207 602.971069,611.107971 
	C644.632690,611.096619 686.294373,610.943115 727.955994,610.854370 
	C728.288757,611.348450 728.621582,611.842468 728.960205,612.664062 
	C727.599487,615.355347 726.232910,617.719055 724.792480,620.423279 
	C724.584290,620.862488 724.373047,620.933777 724.326721,621.063843 
	C721.149719,629.987671 714.468018,630.982544 705.841553,630.967773 
	C569.018311,630.733337 432.194519,630.820496 295.371063,630.986450 
	C291.644012,630.990967 289.526520,629.608398 287.320496,626.957520 
	C284.953156,623.051880 282.966064,619.061951 280.733612,614.866760 
z"/>
<path fill="#040C1C" opacity="1.000000" stroke="none" 
	d="
M640.457275,593.103333 
	C640.346497,589.043884 640.430847,585.034668 641.198364,581.160828 
	C641.442688,579.927734 643.475037,578.197998 644.737915,578.155823 
	C652.893250,577.883545 661.070068,577.835510 669.218384,578.197754 
	C670.530823,578.256104 672.555237,580.591553 672.820496,582.122192 
	C673.381348,585.358032 672.997009,588.757629 672.999878,592.556885 
	C662.305298,593.084473 651.611206,593.145203 640.457275,593.103333 
z"/>
<path fill="#6299CF" opacity="1.000000" stroke="none" 
	d="
M727.636475,610.596924 
	C686.294373,610.943115 644.632690,611.096619 602.971069,611.107971 
	C495.642975,611.137207 388.314880,611.103516 280.528748,611.037781 
	C281.797607,610.650024 283.524414,610.030396 285.251373,610.029968 
	C430.790314,609.992249 576.329285,610.001465 721.868225,610.023254 
	C723.684509,610.023560 725.500732,610.229553 727.636475,610.596924 
z"/>
<path fill="#040C1C" opacity="1.000000" stroke="none" 
	d="
M408.435242,593.060303 
	C407.847290,589.888184 408.521912,587.250854 412.218811,587.079529 
	C415.741699,586.916443 415.834717,589.641357 416.001404,592.556274 
	C413.626709,593.018982 411.250000,593.083191 408.435242,593.060303 
z"/>
<path fill="#040C1C" opacity="1.000000" stroke="none" 
	d="
M381.328613,593.261414 
	C386.125031,592.888245 391.289062,592.687866 396.747986,592.789429 
	C391.927307,593.205688 386.811768,593.319946 381.328613,593.261414 
z"/>
<path fill="#040C1C" opacity="1.000000" stroke="none" 
	d="
M754.448792,592.992676 
	C756.157410,592.742615 758.294983,592.576477 760.705383,592.662842 
	C758.944763,592.969116 756.911194,593.022766 754.448792,592.992676 
z"/>
<path fill="#040C1C" opacity="1.000000" stroke="none" 
	d="
M724.368591,593.174438 
	C724.505981,590.865601 725.410889,590.379028 726.948730,592.747559 
	C726.246399,593.147095 725.492004,593.208801 724.368591,593.174438 
z"/>
<path fill="#020814" opacity="1.000000" stroke="none" 
	d="
M317.067383,344.030029 
	C318.384399,341.921722 320.087738,339.801910 321.938019,337.384827 
	C335.333435,324.430908 349.056580,312.381531 364.411713,302.252258 
	C398.436615,279.807159 435.458405,265.172668 475.939697,260.117859 
	C524.045044,254.111084 569.719604,263.049866 613.059570,284.365936 
	C643.293701,299.236115 669.554199,319.415680 692.086304,344.457764 
	C692.641663,345.074982 693.241455,345.652313 694.065063,346.461243 
	C701.504272,356.037018 708.716736,365.386078 715.872070,374.778778 
	C716.825439,376.030212 717.488525,377.502808 718.698914,379.582336 
	C576.041687,379.582336 434.267029,379.582336 291.465851,379.582336 
	C296.165009,373.049164 300.335297,366.951050 304.908051,361.171417 
	C305.728760,360.134064 308.210449,360.124298 309.925629,360.122955 
	C360.733032,360.082520 411.540436,360.104858 462.347870,360.112366 
	C470.177185,360.113525 478.006989,360.140076 485.835693,360.064819 
	C492.506500,360.000732 496.256256,356.910400 496.108887,351.771606 
	C495.977783,347.201508 491.727417,343.869995 485.823151,343.873199 
	C430.518646,343.903198 375.214111,343.956635 319.446014,344.086853 
	C318.472870,344.119751 317.963287,344.069122 317.067383,344.030029 
M432.513550,308.158997 
	C428.103943,308.158997 423.694305,308.158997 418.364868,308.158997 
	C420.306000,310.565857 421.870148,312.217743 423.101532,314.088593 
	C426.208099,318.808563 430.261932,320.406006 436.056610,320.216461 
	C450.354828,319.748749 464.681580,319.966766 478.990906,320.230896 
	C481.080597,320.269501 483.618134,321.601746 485.123108,323.141846 
	C490.408203,328.550293 496.229919,332.316467 504.097992,330.434631 
	C513.193787,328.259094 518.623352,320.576965 518.071533,311.258087 
	C517.588379,303.098297 510.920288,295.939484 502.678314,294.732086 
	C494.302612,293.505096 486.433533,298.759399 483.188690,308.187195 
	C466.762451,308.187195 450.135101,308.187195 432.513550,308.158997 
M522.042847,355.182831 
	C527.373474,362.373535 533.725159,364.470825 541.457886,361.593536 
	C547.162659,359.470825 551.477356,352.660461 550.705078,346.535126 
	C549.828796,339.585510 546.371765,334.338104 539.506165,332.096161 
	C533.298706,330.069153 527.848389,332.212860 523.880676,336.946045 
	C519.559998,342.100311 518.261658,348.124207 522.042847,355.182831 
M573.232117,361.533539 
	C578.438049,363.553467 583.384888,362.869019 587.916931,359.779602 
	C593.464722,355.997772 595.665833,348.836090 593.452271,342.522125 
	C591.077271,335.748016 584.741394,331.028351 578.445129,331.343201 
	C571.541870,331.688416 565.633850,336.611115 564.147156,343.256653 
	C562.479492,350.711090 565.614197,357.433502 573.232117,361.533539 
M616.172119,344.121674 
	C616.116882,345.779846 615.904724,347.450287 616.033569,349.094025 
	C616.588074,356.167877 622.123047,361.704468 629.619507,362.810791 
	C635.222717,363.637726 642.294800,359.610291 644.611084,354.273254 
	C648.420166,345.497131 644.757385,335.844055 636.425415,332.700256 
	C627.545593,329.349762 619.867249,333.432922 616.172119,344.121674 
z"/>
<path fill="#040C1C" opacity="1.000000" stroke="none" 
	d="
M349.829163,513.196899 
	C350.108337,513.031433 350.408234,512.973083 350.942078,513.099121 
	C352.962952,516.222229 353.936401,519.120972 350.761963,522.085999 
	C350.160828,522.647461 350.578400,524.451355 350.746704,525.651062 
	C351.036041,527.713623 351.499084,529.751831 352.021973,532.497070 
	C354.325775,532.614380 358.162476,532.623596 361.951416,533.053894 
	C365.906219,533.502930 368.845520,535.375732 368.857727,540.028381 
	C365.530640,535.891724 361.157990,535.196289 356.258026,535.197571 
	C317.168365,535.207458 278.078735,535.101624 238.531342,534.954895 
	C238.073608,534.878540 238.052353,534.435791 237.990616,534.223022 
	C237.955505,527.356140 237.982132,520.702087 238.058990,513.590149 
	C274.519165,513.095520 310.929108,513.058716 347.713074,513.505554 
	C348.373077,514.435120 348.659119,514.880981 348.945129,515.326843 
	C349.239807,514.616882 349.534485,513.906860 349.829163,513.196899 
M318.313354,531.920715 
	C327.259125,531.920715 336.204926,531.920715 345.629303,531.920715 
	C345.629303,527.160522 345.842041,523.022827 345.478546,518.936401 
	C345.388550,517.924866 343.450043,516.311584 342.325409,516.280640 
	C334.049408,516.053650 325.764313,516.158020 316.653931,516.158020 
	C316.955505,521.621826 317.233124,526.651611 318.313354,531.920715 
z"/>
<path fill="#4B8FCF" opacity="1.000000" stroke="none" 
	d="
M343.940399,572.943237 
	C335.190277,572.943237 326.440155,572.943237 317.266846,572.943237 
	C317.266846,567.277039 317.266846,561.786560 317.266846,555.839905 
	C324.641113,555.839905 331.870483,555.839905 339.583984,556.326294 
	C340.391235,560.542908 340.460358,564.320740 341.147217,567.982666 
	C341.478424,569.748657 342.972748,571.296570 343.940399,572.943237 
z"/>
<path fill="#35608D" opacity="1.000000" stroke="none" 
	d="
M344.368835,572.966858 
	C342.972748,571.296570 341.478424,569.748657 341.147217,567.982666 
	C340.460358,564.320740 340.391235,560.542908 340.052704,556.377319 
	C341.769165,555.685791 343.501068,555.429688 346.489655,554.987854 
	C345.873260,561.544556 345.335266,567.267517 344.368835,572.966858 
z"/>
<path fill="#040C1C" opacity="1.000000" stroke="none" 
	d="
M368.220032,547.992920 
	C370.774414,551.427429 367.645691,550.696350 365.459473,551.022583 
	C366.062500,550.086182 367.042114,549.145142 368.220032,547.992920 
z"/>
<path fill="#040C1C" opacity="1.000000" stroke="none" 
	d="
M369.143066,542.399902 
	C369.338928,542.876526 369.478821,543.715698 369.418396,544.754272 
	C369.174408,544.223267 369.130768,543.492798 369.143066,542.399902 
z"/>
<path fill="#040C1C" opacity="1.000000" stroke="none" 
	d="
M363.733459,551.303101 
	C363.808655,551.555786 363.594788,551.739380 363.111023,551.899597 
	C362.979828,551.617065 363.180908,551.403015 363.733459,551.303101 
z"/>
<path fill="#F9FAFC" opacity="1.000000" stroke="none" 
	d="
M726.611145,517.618652 
	C722.459534,520.332458 718.598389,522.828491 713.956909,525.828918 
	C713.956909,502.969330 713.956909,480.984985 713.956909,459.000671 
	C713.462402,458.787750 712.967957,458.574829 712.473450,458.361908 
	C693.906982,486.073059 675.340515,513.784180 656.243225,542.287537 
	C637.035583,514.147156 618.023438,486.293274 598.348938,457.468994 
	C598.348938,471.093567 598.348938,483.484833 598.348938,496.862976 
	C592.345398,493.068146 587.235229,489.123199 581.541565,486.396729 
	C571.527832,481.601410 567.920593,474.622253 568.864746,463.290680 
	C570.076294,448.749390 569.159180,434.030701 569.159180,418.776733 
	C576.673096,418.776733 584.199951,419.642059 591.441833,418.574402 
	C602.374939,416.962494 608.688782,421.078064 614.359436,430.379211 
	C625.608704,448.830597 638.181152,466.476349 650.254211,484.423187 
	C652.104614,487.173859 654.207764,489.754486 656.353271,492.626953 
	C671.047852,470.470612 685.740417,448.640411 700.029480,426.549103 
	C703.680359,420.904785 707.480408,417.950897 714.664978,418.592499 
	C723.566040,419.387390 732.592102,418.782867 742.516296,418.782867 
	C742.516296,422.707153 742.518433,426.623810 742.515930,430.540497 
	C742.500244,455.028351 742.422302,479.516510 742.543518,504.003693 
	C742.558899,507.112701 741.543396,508.768280 738.853027,510.180756 
	C734.739441,512.340332 730.872986,514.970520 726.611145,517.618652 
z"/>
<path fill="#F8F9FB" opacity="1.000000" stroke="none" 
	d="
M440.761810,479.874207 
	C433.796997,503.141296 443.216187,528.372314 463.044373,540.220825 
	C483.233002,552.284729 508.790222,549.239563 525.972473,532.388611 
	C533.977722,538.708374 542.040833,545.073853 550.110657,551.444580 
	C530.575989,573.296753 494.722137,582.701538 461.444763,571.916077 
	C430.192291,561.786987 407.257996,528.846375 407.363617,494.898926 
	C407.468201,461.285065 429.711884,430.655945 461.516815,419.955200 
	C497.059570,407.996857 529.953796,419.975037 548.638062,441.482147 
	C541.640198,447.846588 534.640930,454.212250 527.644226,460.575623 
	C498.271820,432.058533 450.714569,444.134064 440.761810,479.874207 
z"/>
<path fill="#F9FBFB" opacity="1.000000" stroke="none" 
	d="
M346.120361,491.568115 
	C336.487518,491.942108 326.827454,491.845581 316.903046,491.375519 
	C316.706329,490.555023 316.773926,490.108093 316.824219,488.935974 
	C316.718658,487.135376 316.630432,486.059967 316.542175,484.984528 
	C316.579407,478.613892 316.616638,472.243256 316.636169,465.113922 
	C316.468628,463.899811 316.318848,463.444366 316.169037,462.988953 
	C316.234924,461.167877 316.300812,459.346832 316.137299,456.920349 
	C315.631714,455.391174 315.355530,454.467438 315.079376,453.543671 
	C315.468414,452.356445 315.857422,451.169220 316.147156,449.200806 
	C315.705841,448.355133 315.363739,448.290649 315.021667,448.226135 
	C298.236511,448.226135 281.451355,448.226135 264.358093,448.226135 
	C264.358093,438.248383 264.358093,428.852081 264.358093,419.090210 
	C308.073608,419.090210 351.760284,419.090210 395.745056,419.090210 
	C395.745056,428.456757 395.745056,438.021057 395.745056,447.937012 
	C379.204620,447.937012 362.812653,447.937012 346.093109,447.937012 
	C346.093109,462.554993 346.093109,476.826294 346.120361,491.568115 
z"/>
<path fill="#22486B" opacity="1.000000" stroke="none" 
	d="
M587.035950,499.942627 
	C595.389587,503.076172 598.865295,508.325134 598.260925,517.949036 
	C597.242615,534.165466 598.014893,550.494324 598.033264,566.775879 
	C598.035645,568.908447 598.033569,571.040955 598.033569,573.602051 
	C589.177124,573.602051 580.783569,573.602051 571.997803,572.972412 
	C571.657715,570.682251 571.768982,569.021301 571.753418,567.361450 
	C571.545593,545.255188 571.320068,523.149048 571.475098,501.025818 
	C576.942688,503.021118 582.034119,505.033508 587.035950,507.010468 
	C587.035950,504.230347 587.035950,502.086487 587.035950,499.942627 
z"/>
<path fill="#22486B" opacity="1.000000" stroke="none" 
	d="
M742.186035,559.008972 
	C742.155579,560.393616 742.125183,561.778198 742.084900,564.028748 
	C742.075012,567.436035 742.075012,569.977356 742.075012,572.436523 
	C739.279053,573.014099 737.121399,573.459839 734.963806,573.905518 
	C733.595337,573.893677 732.226868,573.881836 730.121704,573.669189 
	C724.567688,573.752686 719.750366,574.036987 714.933105,574.321289 
	C714.933105,574.321350 714.867798,574.018677 714.907959,573.421204 
	C714.985046,564.885925 714.775696,556.934998 715.196411,549.017578 
	C715.337952,546.353088 717.080688,543.773743 718.426758,541.059021 
	C726.440796,536.590759 734.119751,532.218994 741.853882,528.137329 
	C741.951050,528.619812 741.992920,528.812195 742.034790,529.004517 
	C742.024719,530.717590 742.014587,532.430725 741.994812,535.038086 
	C742.047791,541.956360 742.110413,547.980225 742.173035,554.004150 
	C742.146790,554.751709 742.120605,555.499268 742.085876,556.953979 
	C742.113586,558.110474 742.149780,558.559692 742.186035,559.008972 
z"/>
<path fill="#468ACC" opacity="1.000000" stroke="none" 
	d="
M741.798645,527.847229 
	C734.119751,532.218994 726.440796,536.590759 718.238220,540.766113 
	C715.344238,538.923706 716.061279,537.359985 717.781372,535.735840 
	C719.174683,534.420227 720.479919,533.011353 721.824219,531.643860 
	C721.824219,531.643860 721.812012,531.785767 722.083496,531.813477 
	C723.222412,531.072510 724.089783,530.303711 724.957092,529.534912 
	C730.509033,526.289429 736.060974,523.043884 741.931763,520.307739 
	C742.099915,523.160461 741.949280,525.503845 741.798645,527.847229 
z"/>
<path fill="#35608D" opacity="1.000000" stroke="none" 
	d="
M586.808105,499.692627 
	C587.035950,502.086487 587.035950,504.230347 587.035950,507.010468 
	C582.034119,505.033508 576.942688,503.021118 571.424744,500.717468 
	C570.656982,499.627838 570.315735,498.829498 569.974487,498.031128 
	C569.678589,495.636139 569.382690,493.241150 568.925842,489.544159 
	C575.499390,493.229797 581.039795,496.336212 586.808105,499.692627 
z"/>
<path fill="#6299CF" opacity="1.000000" stroke="none" 
	d="
M569.959106,498.497253 
	C570.315735,498.829498 570.656982,499.627838 571.048645,500.734558 
	C571.320068,523.149048 571.545593,545.255188 571.753418,567.361450 
	C571.768982,569.021301 571.657715,570.682251 571.551270,572.732422 
	C571.011414,571.720520 570.109253,570.320923 570.102051,568.916809 
	C569.982788,545.599304 569.975830,522.281311 569.959106,498.497253 
z"/>
<path fill="#6299CF" opacity="1.000000" stroke="none" 
	d="
M721.459229,531.662598 
	C720.479919,533.011353 719.174683,534.420227 717.781372,535.735840 
	C716.061279,537.359985 715.344238,538.923706 717.903076,540.862549 
	C717.080688,543.773743 715.337952,546.353088 715.196411,549.017578 
	C714.775696,556.934998 714.985046,564.885925 714.952087,573.272827 
	C714.640991,572.197876 714.078735,570.678162 714.051758,569.149048 
	C713.900208,560.549255 714.343445,551.909729 713.655945,543.358337 
	C713.151367,537.082520 715.710388,533.723694 721.459229,531.662598 
z"/>
<path fill="#040C1C" opacity="1.000000" stroke="none" 
	d="
M742.537964,553.888794 
	C742.110413,547.980225 742.047791,541.956360 742.023315,535.465454 
	C742.663574,535.460083 743.801758,535.940125 743.786560,536.380432 
	C743.586731,542.181396 743.224487,547.976746 742.537964,553.888794 
z"/>
<path fill="#040C1C" opacity="1.000000" stroke="none" 
	d="
M735.179321,574.196899 
	C737.121399,573.459839 739.279053,573.014099 742.075012,572.436523 
	C742.075012,569.977356 742.075012,567.436035 742.132507,564.442078 
	C747.910828,566.103149 744.546448,570.158997 743.437927,572.802917 
	C742.001404,576.229248 738.749023,577.076721 735.179321,574.196899 
z"/>
<path fill="#040C1C" opacity="1.000000" stroke="none" 
	d="
M714.975586,574.676880 
	C719.750366,574.036987 724.567688,573.752686 729.711548,573.689636 
	C725.651306,574.915649 721.277405,575.988708 716.859192,576.827698 
	C716.376526,576.919373 715.637939,575.663391 714.975586,574.676880 
z"/>
<path fill="#040C1C" opacity="1.000000" stroke="none" 
	d="
M741.853882,528.137329 
	C741.949280,525.503845 742.099915,523.160461 742.313965,520.378357 
	C746.615295,522.000977 746.747681,525.273682 742.387329,528.955139 
	C741.992920,528.812195 741.951050,528.619812 741.853882,528.137329 
z"/>
<path fill="#040C1C" opacity="1.000000" stroke="none" 
	d="
M316.147644,484.985840 
	C316.630432,486.059967 316.718658,487.135376 316.719360,488.609070 
	C314.641754,488.067200 312.651642,487.127106 309.261230,485.525513 
	C312.243408,485.278198 313.998291,485.132660 316.147644,484.985840 
z"/>
<path fill="#040C1C" opacity="1.000000" stroke="none" 
	d="
M262.000336,485.590271 
	C264.149292,484.830139 266.600250,484.297699 269.051208,483.765228 
	C269.133331,484.449463 269.215454,485.133667 269.297577,485.817902 
	C266.965851,485.817902 264.634094,485.817902 262.000336,485.590271 
z"/>
<path fill="#040C1C" opacity="1.000000" stroke="none" 
	d="
M300.855225,483.280518 
	C300.390869,484.325317 299.588135,485.265381 298.785431,486.205444 
	C298.312622,485.698730 297.839844,485.191986 297.367065,484.685272 
	C298.416992,484.182129 299.466949,483.678955 300.855225,483.280518 
z"/>
<path fill="#040C1C" opacity="1.000000" stroke="none" 
	d="
M352.338135,513.730225 
	C354.966217,513.416687 358.028839,513.225708 361.531281,513.104980 
	C358.904968,513.401123 355.838776,513.626953 352.338135,513.730225 
z"/>
<path fill="#040C1C" opacity="1.000000" stroke="none" 
	d="
M730.808350,403.419586 
	C731.880798,403.489136 732.704895,403.756744 733.528992,404.024353 
	C733.189575,404.525909 732.850159,405.027466 732.510742,405.528992 
	C731.860474,404.891876 731.210205,404.254761 730.808350,403.419586 
z"/>
<path fill="#040C1C" opacity="1.000000" stroke="none" 
	d="
M315.024109,453.763428 
	C315.355530,454.467438 315.631714,455.391174 315.775452,456.630310 
	C315.418304,455.958191 315.193573,454.970703 315.024109,453.763428 
z"/>
<path fill="#6299CF" opacity="1.000000" stroke="none" 
	d="
M724.674805,529.609009 
	C724.089783,530.303711 723.222412,531.072510 722.023132,531.775818 
	C722.591675,531.034607 723.492126,530.358826 724.674805,529.609009 
z"/>
<path fill="#040C1C" opacity="1.000000" stroke="none" 
	d="
M315.962769,463.068420 
	C316.318848,463.444366 316.468628,463.899811 316.438110,464.685974 
	C316.090698,464.393799 315.923584,463.770874 315.962769,463.068420 
z"/>
<path fill="#040C1C" opacity="1.000000" stroke="none" 
	d="
M742.453979,558.955322 
	C742.149780,558.559692 742.113586,558.110474 742.130127,557.326111 
	C742.362488,557.627930 742.542175,558.264832 742.453979,558.955322 
z"/>
<path fill="#040C1C" opacity="1.000000" stroke="none" 
	d="
M364.067078,513.029541 
	C364.372467,512.489197 364.848541,512.198486 365.612366,511.880371 
	C365.346008,512.328369 364.791870,512.803833 364.067078,513.029541 
z"/>
<path fill="#040C1C" opacity="1.000000" stroke="none" 
	d="
M315.139496,448.400574 
	C315.363739,448.290649 315.705841,448.355133 316.012329,448.707031 
	C315.695831,448.925171 315.456024,448.785339 315.139496,448.400574 
z"/>
<path fill="#040813" opacity="1.000000" stroke="none" 
	d="
M240.461746,492.523285 
	C240.436493,492.477386 240.487000,492.569183 240.461746,492.523285 
z"/>
<path fill="#040813" opacity="1.000000" stroke="none" 
	d="
M349.551331,513.132996 
	C349.534485,513.906860 349.239807,514.616882 348.945129,515.326843 
	C348.659119,514.880981 348.373077,514.435120 348.118347,513.599487 
	C348.524261,513.162842 348.898895,513.115967 349.551331,513.132996 
z"/>
<path fill="#F2F6F7" opacity="1.000000" stroke="none" 
	d="
M433.010620,308.173096 
	C450.135101,308.187195 466.762451,308.187195 483.188690,308.187195 
	C486.433533,298.759399 494.302612,293.505096 502.678314,294.732086 
	C510.920288,295.939484 517.588379,303.098297 518.071533,311.258087 
	C518.623352,320.576965 513.193787,328.259094 504.097992,330.434631 
	C496.229919,332.316467 490.408203,328.550293 485.123108,323.141846 
	C483.618134,321.601746 481.080597,320.269501 478.990906,320.230896 
	C464.681580,319.966766 450.354828,319.748749 436.056610,320.216461 
	C430.261932,320.406006 426.208099,318.808563 423.101532,314.088593 
	C421.870148,312.217743 420.306000,310.565857 418.364868,308.158997 
	C423.694305,308.158997 428.103943,308.158997 433.010620,308.173096 
z"/>
<path fill="#4C8CCD" opacity="1.000000" stroke="none" 
	d="
M521.873413,354.834534 
	C518.261658,348.124207 519.559998,342.100311 523.880676,336.946045 
	C527.848389,332.212860 533.298706,330.069153 539.506165,332.096161 
	C546.371765,334.338104 549.828796,339.585510 550.705078,346.535126 
	C551.477356,352.660461 547.162659,359.470825 541.457886,361.593536 
	C533.725159,364.470825 527.373474,362.373535 521.873413,354.834534 
z"/>
<path fill="#4C8CCD" opacity="1.000000" stroke="none" 
	d="
M572.877808,361.376648 
	C565.614197,357.433502 562.479492,350.711090 564.147156,343.256653 
	C565.633850,336.611115 571.541870,331.688416 578.445129,331.343201 
	C584.741394,331.028351 591.077271,335.748016 593.452271,342.522125 
	C595.665833,348.836090 593.464722,355.997772 587.916931,359.779602 
	C583.384888,362.869019 578.438049,363.553467 572.877808,361.376648 
z"/>
<path fill="#4C8CCD" opacity="1.000000" stroke="none" 
	d="
M616.299927,343.728088 
	C619.867249,333.432922 627.545593,329.349762 636.425415,332.700256 
	C644.757385,335.844055 648.420166,345.497131 644.611084,354.273254 
	C642.294800,359.610291 635.222717,363.637726 629.619507,362.810791 
	C622.123047,361.704468 616.588074,356.167877 616.033569,349.094025 
	C615.904724,347.450287 616.116882,345.779846 616.299927,343.728088 
z"/>
<path fill="#4A87BB" opacity="1.000000" stroke="none" 
	d="
M317.912048,531.801025 
	C317.233124,526.651611 316.955505,521.621826 316.653931,516.158020 
	C325.764313,516.158020 334.049408,516.053650 342.325409,516.280640 
	C343.450043,516.311584 345.388550,517.924866 345.478546,518.936401 
	C345.842041,523.022827 345.629303,527.160522 345.629303,531.920715 
	C336.204926,531.920715 327.259125,531.920715 317.912048,531.801025 
z"/>
</svg>